<?xml version="1.0" encoding="utf-8"?>
<!-- Generator: Adobe Illustrator 27.5.0, SVG Export Plug-In . SVG Version: 6.00 Build 0)  -->
<svg version="1.1" xmlns="http://www.w3.org/2000/svg" xmlns:xlink="http://www.w3.org/1999/xlink" x="0px" y="0px"
	 viewBox="0 0 3710 3710" style="enable-background:new 0 0 3710 3710;" xml:space="preserve">
<g id="Background">
	<g>
		<g>
			<rect style="fill:#FFFFFF;" width="3710" height="3710"/>
		</g>
	</g>
</g>
<g id="Illustration">
	<g>
		<linearGradient id="SVGID_1_" gradientUnits="userSpaceOnUse" x1="3577.8982" y1="4066.0735" x2="1096.9614" y2="984.9056">
			<stop  offset="0" style="stop-color:#B37CFF"/>
			<stop  offset="1" style="stop-color:#F895E7"/>
		</linearGradient>
		<path style="opacity:0.3;fill:url(#SVGID_1_);" d="M2895.377,2850.972c-56.986,59.992-110.906,98.681-153.507,129.248
			c-500.766,359.305-1093.304,254.569-1219.236,228.992c-185.961-37.77-545.419-110.778-805.301-416.393
			c-393.18-462.371-331.956-1190.824-26.979-1671.686c55.785-87.958,350.458-576.144,949.378-654.434
			c362.46-47.38,784.973,48.18,1090.945,304.524C3372.939,1309.311,3327.217,2396.344,2895.377,2850.972z"/>
		<g>
			
				<linearGradient id="SVGID_00000049197167062198350850000004310606549461369218_" gradientUnits="userSpaceOnUse" x1="1129.4175" y1="3174.3174" x2="1982.2423" y2="3174.3174" gradientTransform="matrix(-1 -0.0039 -0.0039 1 4408.0845 -442.5123)">
				<stop  offset="0" style="stop-color:#A737D5"/>
				<stop  offset="1" style="stop-color:#EF497A"/>
			</linearGradient>
			<path style="fill:url(#SVGID_00000049197167062198350850000004310606549461369218_);" d="M3261.388,2211.37
				c-2.792-6.621-6.221-16.132-11.942-14.133c-92.489,32.323-330.052,144.739-425.836,467.817
				c-120.176,405.35-267.777,512.124-412.085,555.736c22.87,11.121,67.182,29.87,123.933,33.563
				C2975.155,3282.969,3321.16,2353.148,3261.388,2211.37z"/>
			<path style="fill:#FFFFFF;" d="M3157.573,2311.698c-27.274,39.616-53.7,79.723-78.525,120.692
				c-25.05,40.837-48.77,82.379-71.075,124.566c-22.131,42.265-43.415,84.919-62.737,128.373
				c-19.529,43.369-37.053,87.49-54.483,131.849c-17.683,44.239-35.229,88.902-57.695,131.98
				c-22.377,43.007-50.582,84.157-85.968,119.186c-8.832,8.725-17.868,17.331-27.355,25.347
				c-9.333,8.186-19.056,15.983-28.924,23.611c-19.823,15.167-40.756,29.115-62.703,41.53
				c-43.969,24.728-91.945,43.107-141.209,55.228c-5.185,1.276-10.513-1.656-11.901-6.547c-1.363-4.803,1.582-9.71,6.598-11.094
				l0.035-0.01c11.892-3.268,23.728-6.66,35.36-10.539c5.851-1.852,11.6-3.945,17.389-5.935c5.701-2.194,11.496-4.18,17.117-6.539
				c22.652-9.072,44.59-19.635,65.579-31.679c42.061-23.866,80.511-53.798,114.378-87.205c16.737-16.89,32.116-34.92,45.961-54.011
				c13.831-19.103,26.117-39.245,37.188-60.071c22.157-41.673,39.912-85.742,57.933-129.857
				c18.085-44.102,36.582-88.302,56.985-131.704c10.138-21.724,20.691-43.272,31.649-64.629
				c5.413-10.708,11.047-21.314,16.659-31.928c5.72-10.563,11.503-21.094,17.375-31.578c23.573-41.896,48.496-83.087,74.771-123.47
				c26.481-40.263,54.093-79.844,83.284-118.347c0.835-1.101,2.462-1.35,3.636-0.557
				C3158.033,2309.131,3158.322,2310.606,3157.573,2311.698z"/>
		</g>
		<g>
			
				<linearGradient id="SVGID_00000052818290048844411950000015280069823535415940_" gradientUnits="userSpaceOnUse" x1="2119.3455" y1="2260.9351" x2="723.3253" y2="3864.4741" gradientTransform="matrix(0.9356 -0.353 0.353 0.9356 446.1249 94.9941)">
				<stop  offset="0" style="stop-color:#CE1567"/>
				<stop  offset="1" style="stop-color:#7A1DBC"/>
			</linearGradient>
			<path style="fill:url(#SVGID_00000052818290048844411950000015280069823535415940_);" d="M2498.965,3179.297
				c-17.186,11.45-39.779-3.196-36.464-23.579c36.509-224.465,197.791-1113.725,535.172-1627.957
				c24.091-36.719,79.361-31.974,96.426,8.491C3201.951,1792.004,3422.182,2564.189,2498.965,3179.297z"/>
			<path style="fill:#E54687;" d="M2995.156,1816.744c-0.75,29.955-3.577,59.764-6.94,89.5c-3.485,29.723-7.66,59.371-12.664,88.883
				c-9.856,59.052-22.482,117.629-36.95,175.734c-14.513,58.1-31.071,115.69-49.266,172.763
				c-18.193,57.081-38.486,113.474-59.901,169.434l-16.396,41.846l-17.13,41.552l-8.599,20.765l-8.981,20.601l-17.996,41.194
				c-24.903,54.508-50.291,108.839-77.791,162.112c-54.4,106.851-113.79,211.181-177.567,312.773
				c-3.578,5.699-11.097,7.419-16.797,3.841c-5.699-3.578-7.419-11.098-3.841-16.797c0.023-0.037,0.087-0.137,0.111-0.174
				c65.028-99.973,125.76-202.771,181.597-308.208c28.218-52.568,54.347-106.218,80.016-160.083l18.573-40.716l9.274-20.367
				l8.891-20.534l17.725-41.1l16.998-41.409c22.225-55.384,43.35-111.243,62.394-167.83c19.047-56.58,36.478-113.719,51.881-171.419
				c15.36-57.705,28.896-115.933,39.679-174.693c5.467-29.367,10.11-58.886,14.067-88.497c3.833-29.613,7.136-59.362,8.366-89.187
				l0-0.023c0.014-0.344,0.305-0.612,0.649-0.598C2994.9,1816.12,2995.166,1816.405,2995.156,1816.744z"/>
		</g>
		<g>
			
				<linearGradient id="SVGID_00000094583043383369814560000003016961695793906878_" gradientUnits="userSpaceOnUse" x1="2683.2957" y1="2943.2644" x2="3764.2483" y2="2943.2644" gradientTransform="matrix(0.9988 0.0489 -0.0489 0.9988 -2038.2847 -632.8405)">
				<stop  offset="0" style="stop-color:#A737D5"/>
				<stop  offset="1" style="stop-color:#EF497A"/>
			</linearGradient>
			<path style="fill:url(#SVGID_00000094583043383369814560000003016961695793906878_);" d="M538.858,1779.326
				c3.974-8.265,8.948-20.179,16.052-17.24c114.839,47.517,407.846,207.096,507.408,626.096
				c124.917,525.698,304.495,672.001,484.132,737.43c-29.675,12.657-86.985,33.605-159.024,34.49
				C829.282,3166.959,453.763,1956.326,538.858,1779.326z"/>
			<path style="fill:#FFFFFF;" d="M663.478,1914.443c31.853,52.427,62.601,105.422,91.265,159.411
				c28.958,53.835,56.186,108.481,81.582,163.854c25.17,55.461,49.241,111.362,70.778,168.152
				c21.804,56.695,41.022,114.217,60.104,172.033c19.411,57.682,38.62,115.896,64.159,172.419
				c25.432,56.426,58.36,110.874,100.781,157.99c10.589,11.737,21.444,23.336,32.91,34.212
				c11.259,11.083,23.038,21.694,35.011,32.101c24.062,20.705,49.61,39.928,76.544,57.262
				c53.968,34.543,113.43,61.25,174.941,80.052c6.474,1.979,13.41-1.404,15.493-7.557c2.045-6.041-1.351-12.506-7.605-14.611
				l-0.044-0.015c-14.825-4.976-29.571-10.106-44.026-15.844c-7.278-2.76-14.41-5.82-21.601-8.752
				c-7.065-3.187-14.263-6.114-21.216-9.505c-28.048-13.113-55.095-28.082-80.841-44.877
				c-51.612-33.313-98.251-74.129-138.86-119.072c-20.043-22.697-38.292-46.756-54.529-72.068
				c-16.218-25.326-30.414-51.875-43.026-79.214c-25.242-54.708-44.756-112.177-64.602-169.723
				c-19.929-57.534-40.371-115.22-63.28-172.017c-11.372-28.424-23.281-56.651-35.715-84.661
				c-6.132-14.038-12.549-27.961-18.938-41.893c-6.53-13.874-13.141-27.711-19.868-41.494
				c-27.018-55.088-55.792-109.367-86.33-162.705c-30.807-53.199-63.089-105.604-97.441-156.738
				c-0.983-1.462-3.024-1.89-4.562-0.957C663.067,1911.134,662.603,1912.998,663.478,1914.443z"/>
		</g>
		<g>
			
				<linearGradient id="SVGID_00000011739767454348661320000014750370290372409254_" gradientUnits="userSpaceOnUse" x1="3042.7419" y1="2320.3748" x2="4611.1919" y2="2320.3748" gradientTransform="matrix(0.9747 0.2234 -0.2234 0.9747 -1957.8844 -1169.9611)">
				<stop  offset="0" style="stop-color:#CE1567"/>
				<stop  offset="1" style="stop-color:#7A1DBC"/>
			</linearGradient>
			<path style="fill:url(#SVGID_00000011739767454348661320000014750370290372409254_);" d="M697.13,878.494
				c-6.524-15.867,14.752-30.882,30.737-21.793c162.322,92.293,563.561,383.473,576.996,1012.336
				c16.857,789.002,246.428,1037.919,503.338,1169.359c0,0-327.787-25.698-571.931-276.324
				C636.842,2146.728,813.136,1160.606,697.13,878.494z"/>
			<path style="fill:#FFFFFF;" d="M845.126,1100.026c31.799,82.614,61.692,165.831,88.014,250.069
				c26.829,84.075,50.699,168.976,71.479,254.563c20.4,85.669,38.945,171.755,53.255,258.618
				c14.757,86.78,25.219,174.236,35.371,262.094c10.708,87.729,20.923,176.189,41.539,263.475
				c20.48,87.123,53.269,172.892,103.27,249.933c12.489,19.196,25.438,38.245,39.579,56.367
				c13.75,18.381,28.465,36.183,43.552,53.726c30.389,34.953,63.586,68.055,99.571,98.692
				c72.167,61.115,155.507,111.957,244.691,151.732c9.387,4.186,21.297,0.677,26.605-7.839c5.211-8.361,2.115-18.441-6.886-22.766
				l-0.064-0.031c-21.344-10.231-42.516-20.672-63.029-31.935c-10.371-5.483-20.417-11.374-30.595-17.09
				c-9.897-6.061-20.089-11.771-29.744-18.106c-39.138-24.732-76.094-51.957-110.417-81.571
				c-68.923-58.851-127.596-127.592-175.514-201.108c-23.478-37.032-43.71-75.681-60.396-115.742
				c-16.652-40.077-29.752-81.521-40.126-123.792c-20.765-84.589-31.705-172.03-43.134-259.649
				c-11.562-87.619-23.871-175.563-40.308-262.714c-8.083-43.596-17.065-87.014-26.936-130.224
				c-4.792-21.636-10.066-43.162-15.294-64.695c-5.466-21.477-11.069-42.918-16.872-64.304
				c-23.395-85.502-49.79-170.182-79.24-253.855c-29.915-83.524-62.389-166.194-98.505-247.437c-1.033-2.323-4.06-3.358-6.762-2.314
				C845.604,1095.135,844.255,1097.75,845.126,1100.026z"/>
		</g>
		<g>
			<g>
				
					<linearGradient id="SVGID_00000134968562561835410230000018435896793514078892_" gradientUnits="userSpaceOnUse" x1="-6455.2866" y1="1853.8751" x2="-4724.0464" y2="1853.8751" gradientTransform="matrix(-0.9998 -0.0221 -0.0221 0.9998 -3617.1572 -79.3674)">
					<stop  offset="0" style="stop-color:#2B3582"/>
					<stop  offset="1" style="stop-color:#150E42"/>
				</linearGradient>
				<path style="fill:url(#SVGID_00000134968562561835410230000018435896793514078892_);" d="M2794.416,704.203
					c-0.406,430.251-3.694,1914.303-29.441,2439.662c-2.729,55.656-41.879,99.51-89.522,100.279
					c-235.641,3.8-1099.26,7.538-1483.943-19.889c-80.124-5.713-142.227-83.132-141.813-177.067
					c1.99-451.569,12.443-1721.551,67.283-2302.221c6.573-69.572,54.553-124.032,114.19-129.675
					c257.069-24.33,1125.519-78.49,1457.666-45.866C2748.737,575.31,2794.483,633.849,2794.416,704.203z"/>
				
					<linearGradient id="SVGID_00000018960134379386643350000007517203211197021616_" gradientUnits="userSpaceOnUse" x1="-5142.7964" y1="1165.6483" x2="-8708.5371" y2="5727.1094" gradientTransform="matrix(-0.9998 -0.0221 -0.0221 0.9998 -3617.1572 -79.3674)">
					<stop  offset="0" style="stop-color:#FDF53F"/>
					<stop  offset="1" style="stop-color:#D93C65"/>
				</linearGradient>
				<path style="fill:url(#SVGID_00000018960134379386643350000007517203211197021616_);" d="M2686.441,833.819
					c4.989,347.394,19.396,1503.042-2.745,1929.767c-3.235,62.374-46.402,111.907-99.774,114.376
					c-219.752,10.164-969.091,26.711-1290.257-10.562c-57.831-6.712-102.094-62.546-103.718-130.53
					c-8.468-354.487-31.49-1430.772-9.982-1852.724c3.433-67.314,49.249-121.333,106.761-126.091
					c237.93-19.677,1034.722-61.39,1307.82-37.88C2645.812,724.59,2685.579,773.677,2686.441,833.819z"/>
				<g style="opacity:0.3;">
					<path style="fill:#FFFFFF;" d="M2588.841,889.875c4.418,307.632,17.177,1331.008-2.43,1708.892
						c-2.865,55.234-41.091,99.098-88.355,101.285c-194.6,9.001-858.172,23.655-1142.578-9.354
						c-51.213-5.944-90.409-55.387-91.846-115.59c-7.5-313.913-27.887-1267.009-8.84-1640.667
						c3.039-59.609,43.611-107.446,94.541-111.659c210.698-17.424,916.291-54.363,1158.131-33.544
						C2552.863,793.147,2588.078,836.616,2588.841,889.875z"/>
				</g>
				<path style="opacity:0.5;fill:#FFFFFF;" d="M2213.814,634.092L2213.814,634.092c-0.292,13.196-9.323,23.885-20.603,24.324
					c-55.686,2.175-212.553,8.347-282.668,11.548c-13.823,0.633-24.337-14.123-21.369-29.949l0.508-2.7
					c2.028-10.797,9.891-18.784,19.308-19.584c47.437-4.025,190.545-14.931,285.069-8.884
					C2205.413,609.574,2214.109,620.788,2213.814,634.092z"/>
			</g>
		</g>
		<g>
			
				<linearGradient id="SVGID_00000000917498044994345970000017545875764987470758_" gradientUnits="userSpaceOnUse" x1="1598.2899" y1="1195.511" x2="2233.3611" y2="1195.511" gradientTransform="matrix(0.9959 0.0903 -0.0903 0.9959 -168.6436 -79.7718)">
				<stop  offset="0" style="stop-color:#53D8FF"/>
				<stop  offset="1" style="stop-color:#3840F7"/>
			</linearGradient>
			<path style="fill:url(#SVGID_00000000917498044994345970000017545875764987470758_);" d="M1930.817,1410.947l-12.999-1.179
				c-4.307-0.391-7.483-4.199-7.092-8.507c0.391-4.307,4.199-7.483,8.507-7.092l12.999,1.179c4.307,0.391,7.483,4.2,7.092,8.507
				C1938.933,1408.162,1935.124,1411.338,1930.817,1410.947z M1878.819,1406.232l-12.999-1.179
				c-4.307-0.391-7.483-4.199-7.092-8.507c0.391-4.307,4.2-7.483,8.507-7.092l12.999,1.179c4.307,0.391,7.483,4.199,7.092,8.507
				C1886.936,1403.447,1883.127,1406.623,1878.819,1406.232z M1826.822,1401.517l-12.999-1.179
				c-4.307-0.391-7.483-4.199-7.092-8.507c0.391-4.307,4.199-7.483,8.507-7.092l12.999,1.179c4.307,0.391,7.483,4.199,7.092,8.507
				C1834.938,1398.732,1831.129,1401.908,1826.822,1401.517z M1774.824,1396.803l-12.999-1.179c-4.307-0.391-7.483-4.2-7.092-8.507
				c0.391-4.307,4.2-7.483,8.507-7.092l12.999,1.179c4.307,0.391,7.483,4.2,7.092,8.507
				C1782.941,1394.017,1779.132,1397.193,1774.824,1396.803z M1722.827,1392.088l-12.999-1.179
				c-4.307-0.391-7.483-4.199-7.092-8.507c0.391-4.307,4.199-7.483,8.507-7.093l12.999,1.179c4.307,0.391,7.483,4.2,7.092,8.507
				C1730.943,1389.303,1727.134,1392.478,1722.827,1392.088z M1670.83,1387.373l-12.999-1.179c-4.307-0.391-7.483-4.2-7.092-8.507
				c0.391-4.307,4.199-7.483,8.507-7.092l12.999,1.179c4.307,0.391,7.483,4.199,7.092,8.507
				C1678.946,1384.588,1675.137,1387.764,1670.83,1387.373z M1618.832,1382.658l-13-1.179c-4.307-0.391-7.483-4.199-7.092-8.507
				c0.391-4.307,4.199-7.483,8.507-7.092l12.999,1.179c4.307,0.391,7.483,4.2,7.092,8.507
				C1626.948,1379.873,1623.139,1383.049,1618.832,1382.658z M1566.835,1377.943l-12.999-1.179c-4.307-0.391-7.483-4.2-7.092-8.507
				c0.391-4.307,4.2-7.483,8.507-7.092l12.999,1.179c4.307,0.391,7.483,4.199,7.092,8.507
				C1574.951,1375.158,1571.142,1378.334,1566.835,1377.943z M1514.837,1373.229l-4.609-0.418c-1.974-0.179-3.823-0.927-5.145-2.405
				l-5.624-6.191c-2.885-3.223-2.614-8.131,0.611-11.015c3.223-2.887,8.187-2.762,11.071,0.464l3.573,3.827l1.537,0.139
				c4.307,0.391,7.483,4.2,7.092,8.507C1522.953,1370.444,1519.144,1373.619,1514.837,1373.229z M1478.468,1337.696
				c-1.905-0.173-3.752-1.039-5.128-2.578l-8.703-9.728c-2.884-3.223-2.609-8.175,0.615-11.058
				c3.224-2.888,8.173-2.612,11.058,0.615l8.703,9.728c2.884,3.223,2.609,8.175-0.615,11.058
				C1482.712,1337.241,1480.555,1337.885,1478.468,1337.696z M1443.655,1298.785c-1.905-0.173-3.752-1.039-5.128-2.577l-8.703-9.727
				c-2.885-3.223-2.61-8.175,0.614-11.059c3.224-2.888,8.175-2.61,11.059,0.614l8.703,9.727c2.885,3.223,2.61,8.175-0.614,11.059
				C1447.901,1298.33,1445.742,1298.974,1443.655,1298.785z M1408.842,1259.876c-1.905-0.173-3.752-1.039-5.128-2.578l-8.703-9.728
				c-2.885-3.223-2.61-8.175,0.615-11.058c3.224-2.887,8.174-2.611,11.058,0.615l8.703,9.728c2.884,3.223,2.61,8.175-0.615,11.058
				C1413.087,1259.421,1410.929,1260.065,1408.842,1259.876z M1374.028,1220.965c-1.906-0.173-3.752-1.039-5.128-2.577l-8.703-9.727
				c-2.885-3.223-2.61-8.175,0.614-11.059c3.224-2.887,8.175-2.608,11.059,0.614l8.703,9.727c2.884,3.223,2.609,8.175-0.614,11.059
				C1378.274,1220.51,1376.115,1221.154,1374.028,1220.965z M1339.215,1182.055c-1.906-0.173-3.752-1.039-5.128-2.578l-8.703-9.728
				c-2.885-3.223-2.61-8.175,0.615-11.058c3.224-2.887,8.173-2.611,11.058,0.615l8.703,9.728c2.885,3.223,2.61,8.175-0.615,11.058
				C1343.46,1181.6,1341.302,1182.244,1339.215,1182.055z"/>
		</g>
		<g>
			
				<linearGradient id="SVGID_00000150795128228708619670000007082599280170427267_" gradientUnits="userSpaceOnUse" x1="2293.5283" y1="2663.4131" x2="2928.5906" y2="2663.4131">
				<stop  offset="0" style="stop-color:#53D8FF"/>
				<stop  offset="1" style="stop-color:#3840F7"/>
			</linearGradient>
			<path style="fill:url(#SVGID_00000150795128228708619670000007082599280170427267_);" d="M2920.759,2762.963h-13.053
				c-4.325,0-7.832-3.505-7.832-7.832c0-4.326,3.507-7.832,7.832-7.832h13.053c4.325,0,7.832,3.505,7.832,7.832
				C2928.591,2759.458,2925.084,2762.963,2920.759,2762.963z M2868.548,2762.963h-13.052c-4.325,0-7.832-3.505-7.832-7.832
				c0-4.326,3.507-7.832,7.832-7.832h13.052c4.325,0,7.832,3.505,7.832,7.832C2876.38,2759.458,2872.873,2762.963,2868.548,2762.963
				z M2816.337,2762.963h-13.053c-4.325,0-7.832-3.505-7.832-7.832c0-4.326,3.507-7.832,7.832-7.832h13.053
				c4.325,0,7.832,3.505,7.832,7.832C2824.169,2759.458,2820.662,2762.963,2816.337,2762.963z M2764.127,2762.963h-13.053
				c-4.325,0-7.832-3.505-7.832-7.832c0-4.326,3.507-7.832,7.832-7.832h13.053c4.325,0,7.832,3.505,7.832,7.832
				C2771.958,2759.458,2768.452,2762.963,2764.127,2762.963z M2711.916,2762.963h-13.053c-4.325,0-7.832-3.505-7.832-7.832
				c0-4.326,3.507-7.832,7.832-7.832h13.053c4.325,0,7.832,3.505,7.832,7.832
				C2719.748,2759.458,2716.241,2762.963,2711.916,2762.963z M2659.705,2762.963h-13.053c-4.325,0-7.832-3.505-7.832-7.832
				c0-4.326,3.507-7.832,7.832-7.832h13.053c4.325,0,7.832,3.505,7.832,7.832C2667.537,2759.458,2664.03,2762.963,2659.705,2762.963
				z M2607.494,2762.963h-13.053c-4.325,0-7.832-3.505-7.832-7.832c0-4.326,3.507-7.832,7.832-7.832h13.053
				c4.325,0,7.832,3.505,7.832,7.832C2615.326,2759.458,2611.819,2762.963,2607.494,2762.963z M2555.283,2762.963h-13.053
				c-4.325,0-7.832-3.505-7.832-7.832c0-4.326,3.507-7.832,7.832-7.832h13.053c4.325,0,7.832,3.505,7.832,7.832
				C2563.115,2759.458,2559.608,2762.963,2555.283,2762.963z M2503.073,2762.963h-4.628c-1.983,0-3.892-0.578-5.342-1.932
				l-6.161-5.66c-3.162-2.949-3.334-7.862-0.385-11.023c2.95-3.166,7.907-3.492,11.069-0.537l3.905,3.489h1.542
				c4.325,0,7.832,3.505,7.832,7.832C2510.904,2759.458,2507.398,2762.963,2503.073,2762.963z M2463.643,2730.86
				c-1.913,0-3.83-0.696-5.34-2.103l-9.546-8.902c-3.164-2.949-3.337-7.906-0.386-11.069c2.95-3.166,7.904-3.337,11.068-0.387
				l9.546,8.902c3.164,2.95,3.337,7.906,0.386,11.069C2467.829,2730.024,2465.739,2730.86,2463.643,2730.86z M2425.459,2695.253
				c-1.913,0-3.831-0.696-5.34-2.103l-9.546-8.903c-3.164-2.949-3.337-7.906-0.386-11.069c2.95-3.166,7.904-3.337,11.068-0.387
				l9.546,8.903c3.164,2.949,3.337,7.905,0.386,11.069C2429.645,2694.417,2427.554,2695.253,2425.459,2695.253z M2387.275,2659.644
				c-1.913,0-3.831-0.696-5.34-2.103l-9.546-8.9c-3.164-2.95-3.337-7.906-0.387-11.069c2.95-3.166,7.906-3.337,11.069-0.387
				l9.546,8.9c3.164,2.95,3.337,7.906,0.388,11.069C2391.462,2658.807,2389.37,2659.644,2387.275,2659.644z M2349.089,2624.037
				c-1.913,0-3.83-0.696-5.34-2.103l-9.546-8.902c-3.164-2.95-3.337-7.906-0.386-11.069c2.95-3.166,7.904-3.337,11.068-0.387
				l9.546,8.902c3.164,2.95,3.337,7.906,0.386,11.069C2353.275,2623.201,2351.185,2624.037,2349.089,2624.037z M2310.905,2588.43
				c-1.913,0-3.83-0.696-5.34-2.103l-9.546-8.902c-3.164-2.949-3.337-7.906-0.386-11.069c2.949-3.166,7.904-3.337,11.068-0.387
				l9.546,8.902c3.164,2.95,3.337,7.906,0.386,11.069C2315.091,2587.594,2313,2588.43,2310.905,2588.43z"/>
		</g>
		<g>
			
				<linearGradient id="SVGID_00000078751692805098414720000013919799552840396686_" gradientUnits="userSpaceOnUse" x1="2012.2253" y1="1963.9054" x2="3033.6777" y2="1963.9054">
				<stop  offset="0" style="stop-color:#53D8FF"/>
				<stop  offset="1" style="stop-color:#3840F7"/>
			</linearGradient>
			<path style="fill:url(#SVGID_00000078751692805098414720000013919799552840396686_);" d="M3025.852,2149.268
				c-0.111,0-0.222-0.003-0.334-0.008l-13.041-0.545c-4.321-0.181-7.677-3.829-7.498-8.15c0.181-4.321,3.748-7.725,8.153-7.498
				l13.041,0.546c4.321,0.181,7.677,3.829,7.498,8.15C3033.494,2145.974,3030.025,2149.268,3025.852,2149.268z M2973.687,2147.088
				c-0.111,0-0.222-0.003-0.334-0.008l-13.041-0.545c-4.321-0.181-7.677-3.829-7.498-8.15c0.182-4.324,3.816-7.697,8.153-7.498
				l13.041,0.546c4.321,0.181,7.677,3.829,7.498,8.15C2981.329,2143.794,2977.861,2147.088,2973.687,2147.088z M2921.52,2144.908
				c-0.11,0-0.22-0.003-0.333-0.008l-13.041-0.545c-4.321-0.181-7.677-3.829-7.498-8.15c0.182-4.324,3.833-7.684,8.153-7.498
				l13.041,0.545c4.321,0.181,7.677,3.829,7.498,8.15C2929.163,2141.615,2925.694,2144.908,2921.52,2144.908z M2869.355,2142.729
				c-0.11,0-0.22-0.003-0.333-0.008l-13.041-0.545c-4.321-0.181-7.677-3.829-7.498-8.15c0.182-4.324,3.771-7.661,8.153-7.499
				l13.041,0.546c4.321,0.181,7.677,3.83,7.498,8.152C2876.998,2139.435,2873.529,2142.729,2869.355,2142.729z M2817.191,2140.549
				c-0.111,0-0.222-0.003-0.334-0.008l-13.041-0.545c-4.321-0.181-7.677-3.829-7.498-8.15c0.181-4.324,3.816-7.657,8.153-7.499
				l13.041,0.545c4.321,0.181,7.677,3.83,7.498,8.152C2824.834,2137.255,2821.365,2140.549,2817.191,2140.549z M2765.026,2138.369
				c-0.111,0-0.222-0.003-0.334-0.008l-13.041-0.545c-4.321-0.181-7.679-3.829-7.498-8.15c0.182-4.323,3.832-7.644,8.153-7.499
				l13.041,0.545c4.321,0.181,7.677,3.832,7.498,8.152C2772.668,2135.075,2769.2,2138.369,2765.026,2138.369z M2712.859,2136.19
				c-0.11,0-0.221-0.003-0.333-0.008l-13.041-0.545c-4.321-0.181-7.677-3.829-7.498-8.152c0.181-4.323,3.745-7.646,8.153-7.498
				l13.041,0.545c4.321,0.181,7.677,3.832,7.498,8.152C2720.503,2132.896,2717.033,2136.19,2712.859,2136.19z M2660.694,2134.01
				c-0.11,0-0.221-0.003-0.333-0.008l-13.041-0.545c-4.321-0.181-7.679-3.832-7.498-8.153c0.181-4.321,3.752-7.657,8.153-7.498
				l13.041,0.546c4.321,0.181,7.677,3.832,7.498,8.153C2668.337,2130.714,2664.868,2134.01,2660.694,2134.01z M2608.53,2131.83
				c-0.111,0-0.222-0.002-0.334-0.008l-13.041-0.545c-4.321-0.181-7.677-3.832-7.498-8.153c0.182-4.321,3.832-7.652,8.153-7.498
				l13.041,0.546c4.321,0.181,7.677,3.832,7.498,8.153C2616.172,2128.534,2612.704,2131.83,2608.53,2131.83z M2556.364,2129.65
				c-0.111,0-0.222-0.002-0.334-0.008l-13.041-0.545c-4.321-0.181-7.677-3.832-7.498-8.153c0.182-4.321,3.85-7.638,8.153-7.498
				l13.041,0.545c4.321,0.181,7.677,3.832,7.498,8.153C2564.006,2126.355,2560.537,2129.65,2556.364,2129.65z M2504.619,2126.169
				c-1.525,0-3.066-0.445-4.419-1.371l-10.768-7.378c-3.568-2.445-4.478-7.319-2.034-10.888c2.446-3.569,7.32-4.482,10.888-2.033
				l10.769,7.378c3.568,2.443,4.478,7.318,2.034,10.887C2509.57,2124.978,2507.116,2126.169,2504.619,2126.169z M2461.547,2096.661
				c-1.526,0-3.067-0.445-4.419-1.372l-10.768-7.377c-3.569-2.445-4.479-7.319-2.036-10.887c2.446-3.566,7.319-4.479,10.887-2.036
				l10.769,7.376c3.569,2.445,4.479,7.319,2.036,10.887C2466.497,2095.469,2464.043,2096.661,2461.547,2096.661z M2418.475,2067.153
				c-1.526,0-3.067-0.445-4.419-1.372l-10.769-7.377c-3.569-2.445-4.479-7.319-2.036-10.887c2.446-3.565,7.321-4.478,10.887-2.036
				l10.769,7.377c3.569,2.445,4.479,7.319,2.036,10.887C2423.424,2065.961,2420.97,2067.153,2418.475,2067.153z M2375.402,2037.646
				c-1.526,0-3.067-0.445-4.419-1.371l-10.769-7.377c-3.569-2.445-4.479-7.319-2.035-10.887c2.445-3.567,7.319-4.48,10.887-2.036
				l10.768,7.377c3.569,2.445,4.479,7.319,2.036,10.887C2380.352,2036.454,2377.898,2037.646,2375.402,2037.646z M2332.329,2008.138
				c-1.526,0-3.067-0.445-4.419-1.371l-10.769-7.377c-3.569-2.445-4.479-7.319-2.036-10.887c2.445-3.567,7.321-4.479,10.887-2.036
				l10.769,7.377c3.569,2.445,4.479,7.319,2.036,10.887C2337.279,2006.946,2334.825,2008.138,2332.329,2008.138z M2289.254,1978.63
				c-1.524,0-3.065-0.445-4.418-1.371l-10.767-7.377c-3.569-2.445-4.479-7.319-2.036-10.888c2.445-3.57,7.321-4.479,10.887-2.034
				l10.767,7.377c3.569,2.445,4.479,7.319,2.036,10.887C2294.205,1977.439,2291.751,1978.63,2289.254,1978.63z M2246.183,1949.123
				c-1.526,0-3.067-0.445-4.421-1.373l-10.767-7.378c-3.568-2.445-4.478-7.319-2.033-10.887c2.444-3.568,7.317-4.479,10.887-2.033
				l10.767,7.378c3.568,2.445,4.478,7.319,2.033,10.887C2251.132,1947.931,2248.679,1949.123,2246.183,1949.123z M2203.109,1919.615
				c-1.524,0-3.065-0.445-4.419-1.371l-10.769-7.378c-3.568-2.445-4.478-7.319-2.033-10.888c2.445-3.564,7.316-4.479,10.887-2.033
				l10.769,7.377c3.568,2.445,4.478,7.319,2.034,10.888C2208.06,1918.424,2205.606,1919.615,2203.109,1919.615z M2160.036,1890.107
				c-1.525,0-3.066-0.445-4.418-1.371l-10.769-7.377c-3.569-2.445-4.479-7.319-2.036-10.887c2.446-3.568,7.32-4.48,10.887-2.036
				l10.769,7.377c3.569,2.445,4.479,7.319,2.036,10.887C2164.987,1888.915,2162.533,1890.107,2160.036,1890.107z M2116.964,1860.599
				c-1.524,0-3.065-0.445-4.418-1.372l-10.769-7.377c-3.569-2.445-4.479-7.319-2.036-10.887c2.445-3.567,7.321-4.479,10.887-2.036
				l10.768,7.377c3.569,2.445,4.479,7.319,2.036,10.887C2121.915,1859.407,2119.461,1860.599,2116.964,1860.599z M2073.891,1831.092
				c-1.524,0-3.066-0.445-4.418-1.371l-10.769-7.377c-3.569-2.445-4.479-7.319-2.036-10.887c2.445-3.565,7.321-4.478,10.887-2.036
				l10.769,7.377c3.569,2.445,4.479,7.319,2.036,10.887C2078.842,1829.9,2076.388,1831.092,2073.891,1831.092z M2030.818,1801.584
				c-1.525,0-3.066-0.445-4.418-1.372l-10.768-7.377c-3.569-2.445-4.479-7.319-2.036-10.887c2.445-3.567,7.32-4.479,10.887-2.036
				l10.769,7.377c3.569,2.445,4.479,7.319,2.036,10.887C2035.769,1800.392,2033.316,1801.584,2030.818,1801.584z"/>
		</g>
		<g>
			
				<linearGradient id="SVGID_00000011711023073333731350000016122715496404479874_" gradientUnits="userSpaceOnUse" x1="2236.7107" y1="1260.8007" x2="3145.9221" y2="1260.8007">
				<stop  offset="0" style="stop-color:#53D8FF"/>
				<stop  offset="1" style="stop-color:#3840F7"/>
			</linearGradient>
			<path style="fill:url(#SVGID_00000011711023073333731350000016122715496404479874_);" d="M2244.548,1355.295
				c-2.335,0-4.645-1.04-6.19-3.026c-2.654-3.416-2.036-8.336,1.379-10.99l10.307-8.009c3.415-2.65,8.334-2.034,10.99,1.379
				c2.653,3.416,2.035,8.336-1.379,10.99l-10.307,8.009C2247.92,1354.757,2246.228,1355.295,2244.548,1355.295z M2285.778,1323.261
				c-2.335,0-4.646-1.04-6.19-3.027c-2.654-3.415-2.036-8.335,1.381-10.989l10.307-8.007c3.412-2.651,8.336-2.036,10.989,1.38
				c2.654,3.415,2.036,8.335-1.38,10.989l-10.307,8.007C2289.149,1322.723,2287.456,1323.261,2285.778,1323.261z M2327.007,1291.228
				c-2.335,0-4.646-1.04-6.19-3.027c-2.654-3.415-2.036-8.335,1.38-10.989l10.307-8.007c3.414-2.651,8.335-2.036,10.989,1.38
				c2.654,3.415,2.036,8.335-1.38,10.989l-10.307,8.007C2330.378,1290.692,2328.686,1291.228,2327.007,1291.228z M2368.236,1259.196
				c-2.335,0-4.646-1.04-6.19-3.027c-2.654-3.415-2.036-8.335,1.38-10.989l10.307-8.007c3.414-2.654,8.335-2.036,10.989,1.38
				c2.654,3.415,2.036,8.335-1.381,10.989l-10.307,8.008C2371.608,1258.658,2369.915,1259.196,2368.236,1259.196z
				 M2409.466,1227.163c-2.335,0-4.646-1.04-6.19-3.027c-2.654-3.415-2.035-8.335,1.381-10.989l10.307-8.007
				c3.414-2.651,8.335-2.036,10.989,1.38c2.654,3.415,2.036,8.335-1.381,10.989l-10.307,8.007
				C2412.837,1226.625,2411.145,1227.163,2409.466,1227.163z M2450.695,1195.13c-2.335,0-4.646-1.04-6.19-3.027
				c-2.654-3.415-2.036-8.335,1.38-10.989l10.307-8.007c3.414-2.651,8.336-2.036,10.989,1.38c2.654,3.415,2.036,8.335-1.38,10.989
				l-10.307,8.008C2454.067,1194.592,2452.374,1195.13,2450.695,1195.13z M3138.091,1181.97h-13.053
				c-4.325,0-7.832-3.507-7.832-7.832c0-4.325,3.507-7.832,7.832-7.832h13.053c4.325,0,7.832,3.507,7.832,7.832
				C3145.922,1178.463,3142.416,1181.97,3138.091,1181.97z M3085.88,1181.97h-13.053c-4.325,0-7.832-3.507-7.832-7.832
				c0-4.325,3.507-7.832,7.832-7.832h13.053c4.325,0,7.832,3.507,7.832,7.832C3093.711,1178.463,3090.205,1181.97,3085.88,1181.97z
				 M3033.669,1181.97h-13.053c-4.325,0-7.832-3.507-7.832-7.832c0-4.325,3.507-7.832,7.832-7.832h13.053
				c4.325,0,7.832,3.507,7.832,7.832C3041.501,1178.463,3037.994,1181.97,3033.669,1181.97z M2981.458,1181.97h-13.053
				c-4.325,0-7.832-3.507-7.832-7.832c0-4.325,3.507-7.832,7.832-7.832h13.053c4.325,0,7.832,3.507,7.832,7.832
				C2989.29,1178.463,2985.783,1181.97,2981.458,1181.97z M2929.248,1181.97h-13.053c-4.325,0-7.832-3.507-7.832-7.832
				c0-4.325,3.507-7.832,7.832-7.832h13.053c4.325,0,7.832,3.507,7.832,7.832C2937.079,1178.463,2933.573,1181.97,2929.248,1181.97z
				 M2877.037,1181.97h-13.053c-4.325,0-7.832-3.507-7.832-7.832c0-4.325,3.507-7.832,7.832-7.832h13.053
				c4.325,0,7.832,3.507,7.832,7.832C2884.868,1178.463,2881.362,1181.97,2877.037,1181.97z M2824.826,1181.97h-13.053
				c-4.325,0-7.832-3.507-7.832-7.832c0-4.325,3.507-7.832,7.832-7.832h13.053c4.325,0,7.832,3.507,7.832,7.832
				C2832.657,1178.463,2829.151,1181.97,2824.826,1181.97z M2772.615,1181.97h-13.052c-4.325,0-7.832-3.507-7.832-7.832
				c0-4.325,3.507-7.832,7.832-7.832h13.052c4.325,0,7.832,3.507,7.832,7.832C2780.447,1178.463,2776.94,1181.97,2772.615,1181.97z
				 M2720.404,1181.97h-13.053c-4.325,0-7.832-3.507-7.832-7.832c0-4.325,3.507-7.832,7.832-7.832h13.053
				c4.325,0,7.832,3.507,7.832,7.832C2728.236,1178.463,2724.729,1181.97,2720.404,1181.97z M2668.194,1181.97h-13.053
				c-4.325,0-7.832-3.507-7.832-7.832c0-4.325,3.507-7.832,7.832-7.832h13.053c4.325,0,7.832,3.507,7.832,7.832
				C2676.025,1178.463,2672.519,1181.97,2668.194,1181.97z M2615.983,1181.97h-13.053c-4.325,0-7.832-3.507-7.832-7.832
				c0-4.325,3.507-7.832,7.832-7.832h13.053c4.325,0,7.832,3.507,7.832,7.832C2623.814,1178.463,2620.308,1181.97,2615.983,1181.97z
				 M2563.772,1181.97h-13.053c-4.325,0-7.832-3.507-7.832-7.832c0-4.325,3.507-7.832,7.832-7.832h13.053
				c4.325,0,7.832,3.507,7.832,7.832C2571.604,1178.463,2568.097,1181.97,2563.772,1181.97z M2511.561,1181.97h-13.053
				c-4.325,0-7.832-3.507-7.832-7.832c0-4.325,3.507-7.832,7.832-7.832h13.053c4.325,0,7.832,3.507,7.832,7.832
				C2519.393,1178.463,2515.886,1181.97,2511.561,1181.97z"/>
		</g>
		<g>
			
				<linearGradient id="SVGID_00000151503908037114928720000008721311092647110328_" gradientUnits="userSpaceOnUse" x1="-555.501" y1="2588.4961" x2="353.757" y2="2588.4961" gradientTransform="matrix(0.944 -0.3298 0.3298 0.944 533.2684 142.7016)">
				<stop  offset="0" style="stop-color:#53D8FF"/>
				<stop  offset="1" style="stop-color:#3840F7"/>
			</linearGradient>
			<path style="fill:url(#SVGID_00000151503908037114928720000008721311092647110328_);" d="M1744.555,2561.023l-12.322,4.305
				c-4.083,1.427-8.55-0.726-9.976-4.81c-1.427-4.084,0.727-8.55,4.81-9.976l12.322-4.305c4.083-1.427,8.55,0.726,9.977,4.81
				C1750.792,2555.131,1748.638,2559.597,1744.555,2561.023z M1695.266,2578.244l-12.322,4.305c-4.083,1.427-8.549-0.726-9.976-4.81
				c-1.427-4.084,0.727-8.55,4.81-9.977l12.322-4.305c4.083-1.427,8.55,0.726,9.977,4.81
				C1701.503,2572.352,1699.349,2576.817,1695.266,2578.244z M1645.977,2595.465l-12.322,4.305c-4.083,1.426-8.55-0.726-9.976-4.81
				c-1.427-4.084,0.727-8.55,4.81-9.977l12.322-4.305c4.083-1.427,8.549,0.726,9.976,4.81
				C1652.214,2589.573,1650.06,2594.038,1645.977,2595.465z M1596.688,2612.686l-12.322,4.305c-4.083,1.427-8.55-0.726-9.976-4.81
				s0.727-8.55,4.81-9.977l12.322-4.305c4.083-1.427,8.55,0.726,9.977,4.81C1602.925,2606.793,1600.771,2611.259,1596.688,2612.686z
				 M1547.399,2629.906l-12.322,4.305c-4.083,1.427-8.549-0.726-9.976-4.81s0.727-8.55,4.81-9.976l12.322-4.305
				c4.083-1.426,8.55,0.726,9.976,4.81C1553.636,2624.014,1551.481,2628.48,1547.399,2629.906z M1498.109,2647.127l-12.322,4.305
				c-4.083,1.427-8.55-0.726-9.976-4.81c-1.427-4.084,0.727-8.55,4.81-9.976l12.322-4.305c4.083-1.427,8.549,0.726,9.976,4.81
				C1504.347,2641.235,1502.193,2645.7,1498.109,2647.127z M1448.82,2664.348l-12.322,4.305c-4.083,1.427-8.55-0.726-9.976-4.81
				s0.727-8.55,4.81-9.977l12.322-4.305c4.083-1.427,8.55,0.726,9.977,4.81C1455.058,2658.455,1452.903,2662.921,1448.82,2664.348z
				 M1399.531,2681.569l-12.322,4.305c-4.083,1.427-8.55-0.726-9.977-4.81c-1.427-4.084,0.727-8.55,4.81-9.977l12.322-4.305
				c4.083-1.427,8.55,0.726,9.976,4.81C1405.769,2675.676,1403.614,2680.142,1399.531,2681.569z M1350.242,2698.789l-12.322,4.305
				c-4.083,1.427-8.55-0.726-9.976-4.81c-1.427-4.084,0.727-8.55,4.81-9.976l12.322-4.305c4.083-1.427,8.55,0.726,9.977,4.81
				C1356.479,2692.897,1354.325,2697.363,1350.242,2698.789z M1300.953,2716.01l-12.322,4.305c-4.083,1.427-8.55-0.726-9.976-4.81
				c-1.427-4.084,0.727-8.55,4.81-9.976l12.322-4.305c4.083-1.427,8.55,0.726,9.977,4.81
				C1307.19,2710.118,1305.036,2714.583,1300.953,2716.01z M1251.664,2733.231l-12.322,4.305c-4.083,1.427-8.55-0.726-9.977-4.81
				c-1.427-4.084,0.727-8.55,4.81-9.977l12.322-4.305c4.083-1.427,8.549,0.726,9.976,4.81
				C1257.901,2727.338,1255.747,2731.804,1251.664,2733.231z M1202.375,2750.452l-12.322,4.305c-4.083,1.427-8.55-0.726-9.976-4.81
				c-1.427-4.084,0.727-8.55,4.81-9.977l12.322-4.305c4.083-1.427,8.55,0.726,9.977,4.81
				C1208.612,2744.559,1206.458,2749.025,1202.375,2750.452z M1153.086,2767.672l-12.322,4.305c-4.083,1.427-8.549-0.726-9.976-4.81
				s0.727-8.55,4.81-9.976l12.322-4.305c4.083-1.427,8.55,0.726,9.976,4.81C1159.323,2761.78,1157.169,2766.246,1153.086,2767.672z
				 M1103.876,2780.143c-1.586,0.554-3.36,0.604-5.074,0.028l-12.371-4.16c-4.1-1.379-6.307-5.82-4.928-9.92
				c1.38-4.098,5.823-6.306,9.919-4.927l12.371,4.16c4.1,1.378,6.307,5.82,4.928,9.92
				C1107.92,2777.628,1106.081,2779.373,1103.876,2780.143z M1054.389,2763.502c-1.586,0.554-3.36,0.604-5.074,0.028l-12.371-4.16
				c-4.1-1.379-6.307-5.82-4.928-9.92c1.379-4.1,5.823-6.304,9.919-4.927l12.371,4.16c4.1,1.379,6.307,5.82,4.928,9.92
				C1058.432,2760.987,1056.593,2762.731,1054.389,2763.502z M1004.901,2746.86c-1.586,0.554-3.36,0.604-5.074,0.028l-12.371-4.16
				c-4.1-1.378-6.307-5.82-4.928-9.92c1.379-4.1,5.822-6.303,9.919-4.927l12.371,4.16c4.1,1.379,6.307,5.82,4.928,9.92
				C1008.944,2744.346,1007.106,2746.09,1004.901,2746.86z M955.415,2730.219c-1.585,0.554-3.359,0.604-5.074,0.028l-12.373-4.159
				c-4.1-1.379-6.307-5.82-4.928-9.92c1.379-4.098,5.822-6.301,9.919-4.927l12.373,4.159c4.1,1.379,6.307,5.82,4.928,9.92
				C959.458,2727.704,957.619,2729.448,955.415,2730.219z M905.927,2713.577c-1.585,0.554-3.359,0.604-5.074,0.028l-12.373-4.16
				c-4.1-1.378-6.307-5.82-4.928-9.92c1.379-4.098,5.822-6.301,9.919-4.926l12.373,4.159c4.1,1.379,6.307,5.82,4.928,9.92
				C909.97,2711.063,908.132,2712.807,905.927,2713.577z M856.44,2696.936c-1.586,0.554-3.36,0.604-5.075,0.029l-12.373-4.162
				c-4.099-1.379-6.306-5.82-4.927-9.92c1.38-4.101,5.821-6.303,9.92-4.927l12.373,4.162c4.099,1.379,6.306,5.82,4.927,9.92
				C860.482,2694.422,858.644,2696.166,856.44,2696.936z"/>
		</g>
		<g>
			
				<linearGradient id="SVGID_00000048493274420283075880000001764675679550212764_" gradientUnits="userSpaceOnUse" x1="611.4187" y1="1837.4128" x2="1713.0865" y2="1837.4128">
				<stop  offset="0" style="stop-color:#53D8FF"/>
				<stop  offset="1" style="stop-color:#3840F7"/>
			</linearGradient>
			<path style="fill:url(#SVGID_00000048493274420283075880000001764675679550212764_);" d="M1706.092,1924.11
				c-1.314,0-2.642-0.413-3.822-1.28l-9.74-7.153c-3.228-2.371-4.13-7.227-2.015-10.845c2.114-3.618,6.446-4.63,9.673-2.259
				l9.74,7.154c3.229,2.371,4.13,7.227,2.015,10.845C1710.602,1922.866,1708.369,1924.11,1706.092,1924.11z M1667.13,1895.494
				c-1.314,0-2.642-0.413-3.822-1.28l-9.74-7.154c-3.229-2.371-4.13-7.227-2.015-10.845c2.114-3.617,6.447-4.627,9.673-2.259
				l9.74,7.153c3.229,2.371,4.13,7.225,2.015,10.845C1671.64,1894.25,1669.407,1895.494,1667.13,1895.494z M1628.168,1866.88
				c-1.314,0-2.642-0.413-3.822-1.28l-9.74-7.153c-3.229-2.371-4.13-7.227-2.015-10.845c2.114-3.62,6.447-4.627,9.673-2.259
				l9.74,7.154c3.228,2.371,4.13,7.225,2.015,10.845C1632.678,1865.636,1630.446,1866.88,1628.168,1866.88z M1589.206,1838.263
				c-1.313,0-2.642-0.413-3.822-1.28l-9.742-7.154c-3.227-2.371-4.13-7.225-2.015-10.842c2.114-3.617,6.446-4.632,9.673-2.261
				l9.742,7.153c3.228,2.371,4.13,7.225,2.015,10.842C1593.716,1837.017,1591.484,1838.263,1589.206,1838.263z M1550.243,1809.649
				c-1.313,0-2.642-0.413-3.822-1.28l-9.741-7.153c-3.227-2.371-4.13-7.225-2.015-10.845c2.114-3.618,6.446-4.63,9.673-2.259
				l9.741,7.153c3.227,2.371,4.13,7.225,2.015,10.845C1554.753,1808.405,1552.52,1809.649,1550.243,1809.649z M1511.281,1781.033
				c-1.313,0-2.642-0.413-3.822-1.28l-9.74-7.153c-3.227-2.371-4.13-7.227-2.015-10.845c2.114-3.615,6.446-4.627,9.673-2.259
				l9.74,7.153c3.229,2.371,4.13,7.228,2.015,10.845C1515.791,1779.789,1513.559,1781.033,1511.281,1781.033z M1468.516,1766.379
				h-11.645c-3.859,0-6.987-3.505-6.987-7.832c0-4.326,3.129-7.832,6.987-7.832h11.645c3.859,0,6.987,3.505,6.987,7.832
				C1475.503,1762.873,1472.375,1766.379,1468.516,1766.379z M1421.935,1766.379h-11.645c-3.859,0-6.987-3.505-6.987-7.832
				c0-4.326,3.129-7.832,6.987-7.832h11.645c3.859,0,6.987,3.505,6.987,7.832
				C1428.922,1762.873,1425.793,1766.379,1421.935,1766.379z M1375.353,1766.379h-11.645c-3.859,0-6.987-3.505-6.987-7.832
				c0-4.326,3.128-7.832,6.987-7.832h11.645c3.859,0,6.987,3.505,6.987,7.832
				C1382.341,1762.873,1379.212,1766.379,1375.353,1766.379z M1328.772,1766.379h-11.645c-3.859,0-6.987-3.505-6.987-7.832
				c0-4.326,3.128-7.832,6.987-7.832h11.645c3.859,0,6.987,3.505,6.987,7.832
				C1335.759,1762.873,1332.631,1766.379,1328.772,1766.379z M1282.191,1766.379h-11.645c-3.859,0-6.987-3.505-6.987-7.832
				c0-4.326,3.129-7.832,6.987-7.832h11.645c3.859,0,6.987,3.505,6.987,7.832
				C1289.178,1762.873,1286.049,1766.379,1282.191,1766.379z M1235.609,1766.379h-11.645c-3.859,0-6.987-3.505-6.987-7.832
				c0-4.326,3.129-7.832,6.987-7.832h11.645c3.859,0,6.987,3.505,6.987,7.832
				C1242.597,1762.873,1239.468,1766.379,1235.609,1766.379z M1189.028,1766.379h-11.646c-3.859,0-6.987-3.505-6.987-7.832
				c0-4.326,3.129-7.832,6.987-7.832h11.646c3.859,0,6.987,3.505,6.987,7.832
				C1196.015,1762.873,1192.886,1766.379,1189.028,1766.379z M1142.447,1766.379h-11.645c-3.859,0-6.987-3.505-6.987-7.832
				c0-4.326,3.129-7.832,6.987-7.832h11.645c3.859,0,6.987,3.505,6.987,7.832
				C1149.434,1762.873,1146.305,1766.379,1142.447,1766.379z M1095.865,1766.379h-11.645c-3.859,0-6.987-3.505-6.987-7.832
				c0-4.326,3.129-7.832,6.987-7.832h11.645c3.859,0,6.987,3.505,6.987,7.832
				C1102.852,1762.873,1099.724,1766.379,1095.865,1766.379z M1049.284,1766.379h-11.645c-3.859,0-6.987-3.505-6.987-7.832
				c0-4.326,3.128-7.832,6.987-7.832h11.645c3.859,0,6.987,3.505,6.987,7.832
				C1056.271,1762.873,1053.142,1766.379,1049.284,1766.379z M1002.702,1766.379h-11.645c-3.859,0-6.987-3.505-6.987-7.832
				c0-4.326,3.128-7.832,6.987-7.832h11.645c3.859,0,6.987,3.505,6.987,7.832C1009.69,1762.873,1006.561,1766.379,1002.702,1766.379
				z M956.121,1766.379h-11.645c-3.859,0-6.987-3.505-6.987-7.832c0-4.326,3.128-7.832,6.987-7.832h11.645
				c3.859,0,6.987,3.505,6.987,7.832C963.108,1762.873,959.98,1766.379,956.121,1766.379z M909.539,1766.379h-11.645
				c-3.859,0-6.987-3.505-6.987-7.832c0-4.326,3.129-7.832,6.987-7.832h11.645c3.859,0,6.987,3.505,6.987,7.832
				C916.527,1762.873,913.398,1766.379,909.539,1766.379z M862.958,1766.379h-11.645c-3.859,0-6.987-3.505-6.987-7.832
				c0-4.326,3.129-7.832,6.987-7.832h11.645c3.859,0,6.987,3.505,6.987,7.832C869.945,1762.873,866.817,1766.379,862.958,1766.379z
				 M816.377,1766.379h-11.645c-3.859,0-6.987-3.505-6.987-7.832c0-4.326,3.129-7.832,6.987-7.832h11.645
				c3.859,0,6.987,3.505,6.987,7.832C823.364,1762.873,820.235,1766.379,816.377,1766.379z M769.795,1766.379H758.15
				c-3.859,0-6.987-3.505-6.987-7.832c0-4.326,3.129-7.832,6.987-7.832h11.645c3.859,0,6.987,3.505,6.987,7.832
				C776.783,1762.873,773.654,1766.379,769.795,1766.379z M723.214,1766.379h-11.645c-3.859,0-6.987-3.505-6.987-7.832
				c0-4.326,3.129-7.832,6.987-7.832h11.645c3.859,0,6.987,3.505,6.987,7.832C730.201,1762.873,727.073,1766.379,723.214,1766.379z
				 M676.633,1766.379h-11.645c-3.859,0-6.987-3.505-6.987-7.832c0-4.326,3.128-7.832,6.987-7.832h11.645
				c3.859,0,6.987,3.505,6.987,7.832C683.62,1762.873,680.491,1766.379,676.633,1766.379z M630.051,1766.379h-11.645
				c-3.859,0-6.987-3.505-6.987-7.832c0-4.326,3.128-7.832,6.987-7.832h11.645c3.859,0,6.987,3.505,6.987,7.832
				C637.038,1762.873,633.91,1766.379,630.051,1766.379z"/>
		</g>
		<g>
			<g>
				
					<linearGradient id="SVGID_00000027598425211715522050000017998568511145294483_" gradientUnits="userSpaceOnUse" x1="807.1368" y1="1397.8309" x2="1175.7595" y2="969.9659">
					<stop  offset="0" style="stop-color:#53D8FF"/>
					<stop  offset="1" style="stop-color:#3840F7"/>
				</linearGradient>
				
					<circle style="fill:url(#SVGID_00000027598425211715522050000017998568511145294483_);" cx="1183.205" cy="961.323" r="274.822"/>
				
					<linearGradient id="SVGID_00000165922174863560662250000010695846050783890842_" gradientUnits="userSpaceOnUse" x1="1384.0555" y1="657.8963" x2="294.0279" y2="2304.6172">
					<stop  offset="0" style="stop-color:#53D8FF"/>
					<stop  offset="1" style="stop-color:#3840F7"/>
				</linearGradient>
				
					<circle style="fill:url(#SVGID_00000165922174863560662250000010695846050783890842_);" cx="1183.205" cy="961.323" r="265.684"/>
				<g>
					<path style="fill:#FFFFFF;" d="M964.124,853.464c-0.379,0-0.765-0.086-1.127-0.269c-1.236-0.624-1.732-2.132-1.108-3.366
						c42.427-84.054,127.231-136.269,221.317-136.269c15.01,0,30.047,1.354,44.694,4.022c1.362,0.247,2.266,1.552,2.017,2.916
						c-0.249,1.361-1.555,2.277-2.916,2.015c-14.35-2.615-29.085-3.939-43.796-3.939c-92.183,0-175.271,51.16-216.842,133.513
						C965.923,852.96,965.04,853.464,964.124,853.464z"/>
				</g>
				<circle style="opacity:0.78;fill:#FFFFFF;" cx="1188.994" cy="967.112" r="224.869"/>
			</g>
			<g>
				<g>
					
						<linearGradient id="SVGID_00000116942598490027042520000007432129704166385281_" gradientUnits="userSpaceOnUse" x1="958.2415" y1="660.8977" x2="1460.3892" y2="1343.1403">
						<stop  offset="0" style="stop-color:#53D8FF"/>
						<stop  offset="1" style="stop-color:#3840F7"/>
					</linearGradient>
					<path style="fill:url(#SVGID_00000116942598490027042520000007432129704166385281_);" d="M1287.019,1053.521
						c-27.3,0-51.974-12.305-67.695-32.54c-2.409-3.101-6.228-4.954-14.089-4.954h-44.059c-7.567,0-11.649,1.981-14.089,5.119
						c-15.373,19.786-39.413,31.031-67.695,31.031c-47.261,0-85.711-38.126-85.711-85.206c0-46.896,38.45-84.96,85.711-84.96
						c11.828,0,24.331,2.295,38.223,9.237c11.021,5.508,22.748,9.526,33.859,9.526h63.465c11.665,0,23.594-4.352,33.858-9.483
						c11.786-5.89,24.446-11.079,38.223-11.079c47.261,0,85.711,39.027,85.711,86.653S1334.28,1053.521,1287.019,1053.521z
						 M1161.176,1001.621h44.059c8.922,0,18.963,1.674,25.799,10.473c12.892,16.593,33.297,26.352,55.985,26.352
						c39.083,0,70.88-31.972,70.88-71.422c0-39.447-31.797-71.481-70.88-71.481c-10.556,0-20.967,4.903-31.592,10.212
						c-11.779,5.888-25.593,12.306-40.488,12.306h-63.465c-14.186,0-27.843-5.955-40.489-12.276
						c-11.784-5.888-22.119-8.805-31.592-8.805c-39.083,0-70.88,31.474-70.88,70.191c0,38.901,31.797,70.537,70.88,70.537
						c23.601,0,43.484-9.356,55.985-25.445C1142.366,1003.27,1152.835,1001.621,1161.176,1001.621z"/>
				</g>
				<g>
					<g>
						
							<linearGradient id="SVGID_00000181790780455475895630000012077472939732265863_" gradientUnits="userSpaceOnUse" x1="905.2856" y1="700.01" x2="1407.4052" y2="1382.2145">
							<stop  offset="0" style="stop-color:#53D8FF"/>
							<stop  offset="1" style="stop-color:#3840F7"/>
						</linearGradient>
						
							<circle style="fill:url(#SVGID_00000181790780455475895630000012077472939732265863_);" cx="1079.656" cy="936.919" r="14.301"/>
						
							<linearGradient id="SVGID_00000021808755984270025230000017167955198037865359_" gradientUnits="userSpaceOnUse" x1="876.9644" y1="720.8536" x2="1379.084" y2="1403.0581">
							<stop  offset="0" style="stop-color:#53D8FF"/>
							<stop  offset="1" style="stop-color:#3840F7"/>
						</linearGradient>
						
							<circle style="fill:url(#SVGID_00000021808755984270025230000017167955198037865359_);" cx="1079.656" cy="996.241" r="14.301"/>
					</g>
					<g>
						
							<linearGradient id="SVGID_00000106116506195261714200000018441904906589573015_" gradientUnits="userSpaceOnUse" x1="910.3642" y1="696.2722" x2="1412.4838" y2="1378.4767">
							<stop  offset="0" style="stop-color:#53D8FF"/>
							<stop  offset="1" style="stop-color:#3840F7"/>
						</linearGradient>
						
							<circle style="fill:url(#SVGID_00000106116506195261714200000018441904906589573015_);" cx="1109.317" cy="966.58" r="14.301"/>
						
							<linearGradient id="SVGID_00000156566506133006456550000005097121567897218996_" gradientUnits="userSpaceOnUse" x1="871.8871" y1="724.5932" x2="1374.0067" y2="1406.7977">
							<stop  offset="0" style="stop-color:#53D8FF"/>
							<stop  offset="1" style="stop-color:#3840F7"/>
						</linearGradient>
						
							<circle style="fill:url(#SVGID_00000156566506133006456550000005097121567897218996_);" cx="1049.995" cy="966.58" r="14.301"/>
					</g>
				</g>
				
					<linearGradient id="SVGID_00000020372941762820215790000010445946563211292587_" gradientUnits="userSpaceOnUse" x1="1027.9063" y1="607.8041" x2="1533.1406" y2="1294.2405">
					<stop  offset="0" style="stop-color:#53D8FF"/>
					<stop  offset="1" style="stop-color:#3840F7"/>
				</linearGradient>
				<path style="fill:url(#SVGID_00000020372941762820215790000010445946563211292587_);" d="M1319.858,955.52h-16.167v-18.601
					c0-5.851-5.675-10.593-11.525-10.593c-5.85,0-11.525,4.743-11.525,10.593v18.601h-17.986c-5.85,0-10.593,4.234-10.593,10.085
					s4.743,10.085,10.593,10.085h17.986v18.433c0,5.851,5.675,10.593,11.525,10.593c5.85,0,11.525-4.743,11.525-10.593v-18.433
					h16.167c5.85,0,10.593-4.234,10.593-10.085S1325.708,955.52,1319.858,955.52z"/>
			</g>
		</g>
		<g>
			<g>
				
					<linearGradient id="SVGID_00000158740569092081964730000018220185463411786157_" gradientUnits="userSpaceOnUse" x1="493.6744" y1="2122.2019" x2="849.9394" y2="1708.6804">
					<stop  offset="0" style="stop-color:#53D8FF"/>
					<stop  offset="1" style="stop-color:#3840F7"/>
				</linearGradient>
				
					<circle style="fill:url(#SVGID_00000158740569092081964730000018220185463411786157_);" cx="857.135" cy="1700.328" r="265.609"/>
				
					<linearGradient id="SVGID_00000099643284149958605650000008922116891007223717_" gradientUnits="userSpaceOnUse" x1="1051.2526" y1="1407.0726" x2="-2.2332" y2="2998.5891">
					<stop  offset="0" style="stop-color:#53D8FF"/>
					<stop  offset="1" style="stop-color:#3840F7"/>
				</linearGradient>
				
					<circle style="fill:url(#SVGID_00000099643284149958605650000008922116891007223717_);" cx="857.136" cy="1700.328" r="256.777"/>
				<g>
					<path style="fill:#FFFFFF;" d="M645.398,1596.084c-0.367,0-0.739-0.083-1.09-0.26c-1.195-0.603-1.674-2.061-1.071-3.253
						c41.005-81.236,122.965-131.701,213.898-131.701c14.507,0,29.04,1.308,43.196,3.887c1.317,0.239,2.19,1.5,1.95,2.818
						c-0.24,1.316-1.502,2.2-2.818,1.947c-13.87-2.527-28.11-3.807-42.328-3.807c-89.093,0-169.396,49.445-209.573,129.037
						C647.137,1595.597,646.284,1596.084,645.398,1596.084z"/>
				</g>
				<circle style="opacity:0.78;fill:#FFFFFF;" cx="862.731" cy="1705.922" r="217.33"/>
			</g>
			<g>
				
					<linearGradient id="SVGID_00000131362025650170052050000003941575191142412429_" gradientUnits="userSpaceOnUse" x1="783.845" y1="1570.4954" x2="927.6823" y2="1842.2681">
					<stop  offset="0" style="stop-color:#53D8FF"/>
					<stop  offset="1" style="stop-color:#3840F7"/>
				</linearGradient>
				<path style="fill:url(#SVGID_00000131362025650170052050000003941575191142412429_);" d="M989.94,1614.901
					c0-10.503-8.514-19.018-19.018-19.018H740.605c-10.503,0-19.018,8.515-19.018,19.018v182.961
					c0,10.503,8.514,19.018,19.018,19.018h230.317c10.503,0,19.018-8.515,19.018-19.018V1614.901z M970.997,1614.826v105.713
					l-48.854-35.806c-4.068-2.98-9.709-2.493-13.205,1.145l-60.08,62.511l-53.198-38.171c-3.588-2.576-7.993-2.51-11.512,0.157
					l-40.461,31.01v-126.559H970.997z M743.687,1794.78v-28.125l46.71-35.747l54.031,38.927c4.068,2.915,9.551,2.403,13.018-1.204
					l59.956-62.447l53.595,39.32v49.278H743.687z"/>
				
					<linearGradient id="SVGID_00000047043709960968306950000009901793475049040005_" gradientUnits="userSpaceOnUse" x1="779.4267" y1="1634.9243" x2="797.9202" y2="1669.8668">
					<stop  offset="0" style="stop-color:#53D8FF"/>
					<stop  offset="1" style="stop-color:#3840F7"/>
				</linearGradient>
				
					<circle style="fill:url(#SVGID_00000047043709960968306950000009901793475049040005_);" cx="788.673" cy="1652.396" r="19.763"/>
			</g>
		</g>
		<g>
			<g>
				
					<linearGradient id="SVGID_00000095307839277501356200000008105818959075781790_" gradientUnits="userSpaceOnUse" x1="428.4828" y1="3059.8308" x2="819.5564" y2="2605.9067">
					<stop  offset="0" style="stop-color:#53D8FF"/>
					<stop  offset="1" style="stop-color:#3840F7"/>
				</linearGradient>
				
					<circle style="fill:url(#SVGID_00000095307839277501356200000008105818959075781790_);" cx="827.456" cy="2596.738" r="291.56"/>
				
					<linearGradient id="SVGID_00000018208302081865216360000016670096868063334303_" gradientUnits="userSpaceOnUse" x1="1040.5386" y1="2274.8306" x2="-115.877" y2="4021.845">
					<stop  offset="0" style="stop-color:#53D8FF"/>
					<stop  offset="1" style="stop-color:#3840F7"/>
				</linearGradient>
				
					<circle style="fill:url(#SVGID_00000018208302081865216360000016670096868063334303_);" cx="827.456" cy="2596.738" r="281.865"/>
				<g>
					<path style="fill:#FFFFFF;" d="M595.031,2482.31c-0.403,0-0.812-0.091-1.196-0.286c-1.311-0.662-1.837-2.262-1.175-3.571
						c45.011-89.174,134.98-144.568,234.796-144.568c15.924,0,31.878,1.436,47.416,4.267c1.445,0.262,2.404,1.647,2.14,3.093
						c-0.264,1.444-1.649,2.415-3.093,2.137c-15.225-2.774-30.857-4.179-46.463-4.179c-97.797,0-185.946,54.276-230.049,141.644
						C596.94,2481.774,596.003,2482.31,595.031,2482.31z"/>
				</g>
				<circle style="opacity:0.78;fill:#FFFFFF;" cx="833.597" cy="2602.879" r="238.564"/>
			</g>
			<g>
				
					<linearGradient id="SVGID_00000078045386168907316150000010326943156674386833_" gradientUnits="userSpaceOnUse" x1="599.7969" y1="2298.6011" x2="1305.7537" y2="3215.947">
					<stop  offset="0" style="stop-color:#53D8FF"/>
					<stop  offset="1" style="stop-color:#3840F7"/>
				</linearGradient>
				<path style="fill:url(#SVGID_00000078045386168907316150000010326943156674386833_);" d="M941.667,2483.005H716.11
					c-22.32,0-46.04,18.321-46.04,45.067v130.219c0,25.366,21.852,48.112,46.04,48.112h145.443v23.417
					c0,7.797,5.163,13.949,10.068,17.105c2.5,1.61,6.399,3.53,10.99,3.53c4.137,0,7.951-1.746,10.802-4.597l40.039-39.454h8.216
					c22.454,0,39.564-20.48,39.564-48.112v-130.219C981.231,2501.744,964.858,2483.005,941.667,2483.005z M957.296,2658.291
					c0,12.059-5.956,24.176-15.628,24.176h-15.56c-1.559,0-2.967,0.789-4.08,1.879l-36.539,36.087v-31.657
					c0-3.289-2.843-6.309-6.132-6.309H716.11c-9.822,0-22.105-11.196-22.105-24.176v-130.219c0-12.246,11.566-21.131,22.105-21.131
					h225.557c14.336,0,15.628,16.256,15.628,21.131V2658.291z"/>
				<g>
					
						<linearGradient id="SVGID_00000023250141423471507270000007242143196920110514_" gradientUnits="userSpaceOnUse" x1="620.9733" y1="2282.1973" x2="1327.0328" y2="3199.6768">
						<stop  offset="0" style="stop-color:#53D8FF"/>
						<stop  offset="1" style="stop-color:#3840F7"/>
					</linearGradient>
					<path style="fill:url(#SVGID_00000023250141423471507270000007242143196920110514_);" d="M936.02,2548.163
						c0,5.141-4.168,9.308-9.308,9.308H724.59c-5.141,0-9.308-4.167-9.308-9.308l0,0c0-5.141,4.167-9.308,9.308-9.308h202.122
						C931.852,2538.854,936.02,2543.022,936.02,2548.163L936.02,2548.163z"/>
					
						<linearGradient id="SVGID_00000092458815840517908860000014677271910988335781_" gradientUnits="userSpaceOnUse" x1="599.121" y1="2299.0129" x2="1305.1805" y2="3216.4924">
						<stop  offset="0" style="stop-color:#53D8FF"/>
						<stop  offset="1" style="stop-color:#3840F7"/>
					</linearGradient>
					<path style="fill:url(#SVGID_00000092458815840517908860000014677271910988335781_);" d="M936.02,2593.374
						c0,5.141-4.168,9.308-9.308,9.308H724.59c-5.141,0-9.308-4.167-9.308-9.308l0,0c0-5.141,4.167-9.308,9.308-9.308h202.122
						C931.852,2584.066,936.02,2588.233,936.02,2593.374L936.02,2593.374z"/>
					
						<linearGradient id="SVGID_00000087388937727903710860000013230493175503195573_" gradientUnits="userSpaceOnUse" x1="577.2697" y1="2315.8298" x2="1283.3291" y2="3233.3093">
						<stop  offset="0" style="stop-color:#53D8FF"/>
						<stop  offset="1" style="stop-color:#3840F7"/>
					</linearGradient>
					<path style="fill:url(#SVGID_00000087388937727903710860000013230493175503195573_);" d="M936.02,2638.585
						c0,5.141-4.168,9.308-9.308,9.308H724.59c-5.141,0-9.308-4.167-9.308-9.308l0,0c0-5.141,4.167-9.308,9.308-9.308h202.122
						C931.852,2629.277,936.02,2633.445,936.02,2638.585L936.02,2638.585z"/>
				</g>
			</g>
		</g>
		<g>
			
				<linearGradient id="SVGID_00000087409743259210099250000000655067225601576084_" gradientUnits="userSpaceOnUse" x1="2569.761" y1="1518.8235" x2="2929.8066" y2="1100.9139">
				<stop  offset="0" style="stop-color:#53D8FF"/>
				<stop  offset="1" style="stop-color:#3840F7"/>
			</linearGradient>
			
				<circle style="fill:url(#SVGID_00000087409743259210099250000000655067225601576084_);" cx="2937.079" cy="1092.473" r="268.428"/>
			
				<linearGradient id="SVGID_00000013903056178848923890000001085753828979858613_" gradientUnits="userSpaceOnUse" x1="3133.2561" y1="796.1054" x2="2068.5908" y2="2404.511">
				<stop  offset="0" style="stop-color:#53D8FF"/>
				<stop  offset="1" style="stop-color:#3840F7"/>
			</linearGradient>
			
				<circle style="fill:url(#SVGID_00000013903056178848923890000001085753828979858613_);" cx="2937.079" cy="1092.473" r="259.502"/>
			<g>
				<path style="fill:#FFFFFF;" d="M2723.095,987.123c-0.371,0-0.747-0.084-1.101-0.263c-1.208-0.61-1.692-2.083-1.082-3.288
					c41.44-82.099,124.27-133.098,216.167-133.098c14.661,0,29.348,1.322,43.654,3.929c1.331,0.241,2.213,1.516,1.97,2.848
					c-0.243,1.33-1.519,2.224-2.848,1.968c-14.017-2.554-28.409-3.847-42.777-3.847c-90.038,0-171.193,49.969-211.797,130.406
					C2724.853,986.63,2723.99,987.123,2723.095,987.123z"/>
			</g>
			
				<ellipse transform="matrix(0.7071 -0.7071 0.7071 0.7071 85.414 2402.4607)" style="opacity:0.78;fill:#FFFFFF;" cx="2942.734" cy="1098.126" rx="219.636" ry="219.636"/>
			<g>
				<g>
					
						<linearGradient id="SVGID_00000023997107687303247180000017189189598067754406_" gradientUnits="userSpaceOnUse" x1="2728.5857" y1="841.8458" x2="3552.9958" y2="1904.7229">
						<stop  offset="0" style="stop-color:#53D8FF"/>
						<stop  offset="1" style="stop-color:#3840F7"/>
					</linearGradient>
					<path style="fill:url(#SVGID_00000023997107687303247180000017189189598067754406_);" d="M3064.376,1180.555
						c0,15.555-12.609,28.166-28.164,28.166h-208.616c-15.554,0-28.164-12.61-28.164-28.166v-153.159
						c0-15.555,12.609-28.165,28.164-28.165h208.616c15.554,0,28.164,12.61,28.164,28.165V1180.555z M3045.891,1027.288
						c0-5.287-4.285-9.573-9.571-9.573h-208.833c-5.286,0-9.571,4.286-9.571,9.573v153.376c0,5.287,4.285,9.573,9.571,9.573h208.833
						c5.286,0,9.571-4.286,9.571-9.573V1027.288z"/>
				</g>
				<g>
					
						<linearGradient id="SVGID_00000019669483132597374250000006669704444801738626_" gradientUnits="userSpaceOnUse" x1="2771.3416" y1="810.0143" x2="3593.6389" y2="1870.167">
						<stop  offset="0" style="stop-color:#53D8FF"/>
						<stop  offset="1" style="stop-color:#3840F7"/>
					</linearGradient>
					<path style="fill:url(#SVGID_00000019669483132597374250000006669704444801738626_);" d="M2932.458,1107.927
						c-1.883,0-3.768-0.57-5.378-1.714l-116.021-82.278c-4.187-2.971-5.175-8.773-2.204-12.961c2.97-4.191,8.775-5.175,12.961-2.204
						l110.639,78.461l109.196-77.56c4.187-2.974,9.99-1.99,12.962,2.197c2.974,4.183,1.99,9.987-2.195,12.961l-114.576,81.381
						C2936.23,1107.353,2934.345,1107.927,2932.458,1107.927z"/>
				</g>
				<g>
					
						<linearGradient id="SVGID_00000142138752445676236810000001610418722119852717_" gradientUnits="userSpaceOnUse" x1="2668.8567" y1="889.5059" x2="3491.1548" y2="1949.6599">
						<stop  offset="0" style="stop-color:#53D8FF"/>
						<stop  offset="1" style="stop-color:#3840F7"/>
					</linearGradient>
					<path style="fill:url(#SVGID_00000142138752445676236810000001610418722119852717_);" d="M2817.897,1201.949l-2.743-18.386
						l1.284,9.206l-7.79-5.062c2.15-3.457,43.993-76.642,71.592-124.991c2.544-4.463,8.22-6.021,12.683-3.464
						c4.459,2.546,6.01,8.222,3.466,12.681c0,0-17.899,31.354-35.833,62.711c-8.968,15.684-17.947,31.368-24.701,43.134
						C2822.388,1201.237,2822.388,1201.237,2817.897,1201.949z"/>
				</g>
				<g>
					
						<linearGradient id="SVGID_00000088829045651540003210000004968263615567086467_" gradientUnits="userSpaceOnUse" x1="2766.6243" y1="813.6735" x2="3588.9221" y2="1873.827">
						<stop  offset="0" style="stop-color:#53D8FF"/>
						<stop  offset="1" style="stop-color:#3840F7"/>
					</linearGradient>
					<path style="fill:url(#SVGID_00000088829045651540003210000004968263615567086467_);" d="M3046.355,1201.953
						c-4.507-0.704-4.507-0.704-17.981-24.175c-6.753-11.766-15.731-27.45-24.701-43.134
						c-17.934-31.358-35.832-62.711-35.832-62.711c-2.546-4.459-0.995-10.135,3.464-12.681c4.458-2.553,10.137-0.995,12.681,3.464
						c27.604,48.353,69.451,121.545,71.596,124.991l-7.791,5.062L3046.355,1201.953z"/>
				</g>
			</g>
		</g>
		<g>
			<g>
				
					<linearGradient id="SVGID_00000161606981040361840480000016864936551552258445_" gradientUnits="userSpaceOnUse" x1="2660.6013" y1="3159.3335" x2="2963.1533" y2="2808.1575">
					<stop  offset="0" style="stop-color:#53D8FF"/>
					<stop  offset="1" style="stop-color:#3840F7"/>
				</linearGradient>
				
					<circle style="fill:url(#SVGID_00000161606981040361840480000016864936551552258445_);" cx="2969.264" cy="2801.064" r="225.564"/>
				
					<linearGradient id="SVGID_00000082363071818778652830000001402036720123303092_" gradientUnits="userSpaceOnUse" x1="3134.115" y1="2552.0222" x2="2239.4602" y2="3903.5903">
					<stop  offset="0" style="stop-color:#53D8FF"/>
					<stop  offset="1" style="stop-color:#3840F7"/>
				</linearGradient>
				
					<circle style="fill:url(#SVGID_00000082363071818778652830000001402036720123303092_);" cx="2969.265" cy="2801.064" r="218.063"/>
				<g>
					<path style="fill:#FFFFFF;" d="M2789.45,2712.537c-0.311,0-0.628-0.07-0.925-0.221c-1.015-0.512-1.422-1.75-0.909-2.763
						c34.823-68.989,104.426-111.844,181.649-111.844c12.32,0,24.662,1.111,36.683,3.301c1.118,0.203,1.86,1.274,1.656,2.393
						c-0.204,1.117-1.276,1.868-2.393,1.654c-11.778-2.146-23.872-3.233-35.946-3.233c-75.66,0-143.856,41.99-177.976,109.582
						C2790.927,2712.123,2790.203,2712.537,2789.45,2712.537z"/>
				</g>
				
					<ellipse transform="matrix(0.7071 -0.7071 0.7071 0.7071 -1112.9418 2924.7512)" style="opacity:0.78;fill:#FFFFFF;" cx="2974.016" cy="2805.815" rx="184.564" ry="184.564"/>
			</g>
			
				<linearGradient id="SVGID_00000060019910208854722140000008122840369907775638_" gradientUnits="userSpaceOnUse" x1="2922.6538" y1="2717.1785" x2="3127.3752" y2="3103.9883">
				<stop  offset="0" style="stop-color:#53D8FF"/>
				<stop  offset="1" style="stop-color:#3840F7"/>
			</linearGradient>
			<path style="fill:url(#SVGID_00000060019910208854722140000008122840369907775638_);" d="M2994.98,2697.907
				c-4.776-1.697-9.786,1.886-9.786,6.955v10.382v20.358v101.206c-10.002-8.229-23.967-13.358-39.448-13.358
				c-30.403,0-55.048,19.717-55.048,44.039c0,24.322,24.646,44.039,55.048,44.039s55.049-19.717,55.049-44.039
				c0-0.212-0.036-0.416-0.04-0.627h0.04V2735.69c21.806,3.304,36.623,19.863,45.295,33.388c3.641,5.679,12.375,2.808,12.017-3.929
				C3055.939,2724.27,3014.358,2704.792,2994.98,2697.907z"/>
		</g>
		<g>
			<g>
				
					<linearGradient id="SVGID_00000183946585606012117940000006615207074912106932_" gradientUnits="userSpaceOnUse" x1="2622.4021" y1="2450.9993" x2="2946.5876" y2="2074.7131">
					<stop  offset="0" style="stop-color:#53D8FF"/>
					<stop  offset="1" style="stop-color:#3840F7"/>
				</linearGradient>
				
					<circle style="fill:url(#SVGID_00000183946585606012117940000006615207074912106932_);" cx="2953.136" cy="2067.112" r="241.693"/>
				
					<linearGradient id="SVGID_00000085250999993008254930000004736598784588915088_" gradientUnits="userSpaceOnUse" x1="3129.7737" y1="1800.2631" x2="2171.1477" y2="3248.4736">
					<stop  offset="0" style="stop-color:#53D8FF"/>
					<stop  offset="1" style="stop-color:#3840F7"/>
				</linearGradient>
				
					<circle style="fill:url(#SVGID_00000085250999993008254930000004736598784588915088_);" cx="2953.136" cy="2067.112" r="233.656"/>
				<g>
					<path style="fill:#FFFFFF;" d="M2760.464,1972.255c-0.334,0-0.673-0.075-0.991-0.237c-1.087-0.549-1.523-1.875-0.974-2.96
						c37.313-73.922,111.893-119.842,194.638-119.842c13.201,0,26.425,1.191,39.306,3.537c1.198,0.218,1.993,1.365,1.774,2.564
						c-0.219,1.197-1.367,2.002-2.564,1.772c-12.621-2.299-25.579-3.464-38.516-3.464c-81.071,0-154.143,44.992-190.702,117.418
						C2762.047,1971.812,2761.271,1972.255,2760.464,1972.255z"/>
				</g>
				
					<ellipse transform="matrix(0.7071 -0.7071 0.7071 0.7071 -598.8243 2698.7168)" style="opacity:0.78;fill:#FFFFFF;" cx="2958.227" cy="2072.203" rx="197.761" ry="197.761"/>
			</g>
			<g>
				
					<linearGradient id="SVGID_00000008832821290652465520000000261779092847524743_" gradientUnits="userSpaceOnUse" x1="2819.8613" y1="1812.8032" x2="3251.967" y2="2637.332">
					<stop  offset="0" style="stop-color:#53D8FF"/>
					<stop  offset="1" style="stop-color:#3840F7"/>
				</linearGradient>
				<path style="fill:url(#SVGID_00000008832821290652465520000000261779092847524743_);" d="M2953.136,2183.812
					c-64.349,0-116.7-52.351-116.7-116.699s52.351-116.7,116.7-116.7c64.348,0,116.699,52.351,116.699,116.7
					S3017.484,2183.812,2953.136,2183.812z M2953.136,1969.969c-53.565,0-97.144,43.578-97.144,97.144
					c0,53.565,43.579,97.144,97.144,97.144c53.565,0,97.143-43.579,97.143-97.144
					C3050.279,2013.547,3006.701,1969.969,2953.136,1969.969z"/>
				
					<linearGradient id="SVGID_00000020370166086459392110000002439002716137121200_" gradientUnits="userSpaceOnUse" x1="2818.1306" y1="1813.7106" x2="3250.2366" y2="2638.2402">
					<stop  offset="0" style="stop-color:#53D8FF"/>
					<stop  offset="1" style="stop-color:#3840F7"/>
				</linearGradient>
				<path style="fill-rule:evenodd;clip-rule:evenodd;fill:url(#SVGID_00000020370166086459392110000002439002716137121200_);" d="
					M2916.578,2112.054v-83.898c0-8.965,9.759-14.521,17.468-9.946l70.696,41.949c7.552,4.481,7.552,15.412,0,19.893l-70.696,41.95
					C2926.336,2126.576,2916.578,2121.019,2916.578,2112.054z"/>
			</g>
		</g>
		<g>
			<g>
				<g>
					<path style="fill:#FFFFFF;" d="M2464.365,1311.651c-3.98,2.215-9.094,1.378-12.142-2.226
						c-8.194-9.711-16.825-19.211-25.647-28.236c-3.755-3.84-3.683-9.994,0.15-13.745c3.853-3.751,9.99-3.69,13.745,0.15
						c9.156,9.371,18.113,19.222,26.603,29.289c3.461,4.112,2.945,10.231-1.155,13.696
						C2465.424,1310.998,2464.904,1311.352,2464.365,1311.651z"/>
					<path style="fill:#FFFFFF;" d="M2368.687,2084.367c-4.254,2.367-9.704,1.219-12.61-2.834
						c-3.132-4.36-2.134-10.432,2.231-13.556c22.08-15.847,43.052-33.565,62.35-52.675c3.769-3.748,9.975-3.758,13.742,0.065
						c3.783,3.813,3.753,9.966-0.065,13.741c-20.018,19.825-41.79,38.216-64.702,54.656
						C2369.325,2083.99,2369.011,2084.187,2368.687,2084.367z M2249.99,2148.487c-0.39,0.217-0.793,0.409-1.224,0.572
						c-26.406,10.218-53.709,18.394-81.151,24.311c-5.248,1.128-10.416-2.208-11.552-7.451c-1.128-5.248,2.197-10.4,7.451-11.552
						c26.457-5.696,52.775-13.573,78.233-23.427c5.012-1.942,10.632,0.547,12.569,5.55
						C2256.094,2141.072,2254.161,2146.166,2249.99,2148.487z M2515.145,1924.296c-2.919,1.624-6.603,1.698-9.683-0.129
						c-4.615-2.732-6.148-8.688-3.408-13.308c13.818-23.337,25.925-47.992,35.973-73.283c1.976-4.998,7.637-7.431,12.619-5.446
						c4.99,1.98,7.427,7.629,5.446,12.619c-10.423,26.237-22.986,51.809-37.322,76.01
						C2517.865,1922.294,2516.596,1923.489,2515.145,1924.296z M2585.336,1718.988c-1.741,0.969-3.786,1.412-5.922,1.145
						c-5.322-0.666-9.097-5.516-8.435-10.847c3.366-27.014,4.618-54.47,3.712-81.572c-0.164-5.35,4.009-9.854,9.391-10.036
						c5.362-0.181,9.855,4.03,10.036,9.392c0.931,28.12-0.362,56.597-3.857,84.628
						C2589.867,1714.892,2587.956,1717.53,2585.336,1718.988z M2567.404,1502.699c-0.605,0.337-1.264,0.616-1.952,0.826
						c-5.14,1.535-10.559-1.391-12.094-6.532c-6.46-21.643-14.43-43.132-23.689-63.871c-1.852-4.128-3.749-8.242-5.688-12.311
						c-2.317-4.847-0.229-10.503,4.573-12.959c4.847-2.317,10.646-0.266,12.958,4.573c2.021,4.218,3.976,8.474,5.895,12.761
						c9.607,21.522,17.876,43.8,24.575,66.244C2573.31,1495.883,2571.302,1500.53,2567.404,1502.699z"/>
					<path style="fill:#FFFFFF;" d="M2035.226,2183.664c-1.526,0.848-3.286,1.296-5.159,1.208
						c-13.068-0.592-26.328-1.685-39.413-3.244c-5.33-0.64-9.138-5.472-8.506-10.797c0.635-5.339,5.467-9.146,10.797-8.506
						c12.619,1.503,25.415,2.562,38.006,3.136c5.359,0.243,9.506,4.789,9.263,10.148
						C2040.064,2179.104,2038.07,2182.081,2035.226,2183.664z"/>
				</g>
				<g>
					<path style="fill:#FFFFFF;" d="M1649.701,1991.234c-4.022,2.237-9.188,1.366-12.214-2.316
						c-8.357-10.142-16.437-20.719-24.017-31.455c-3.104-4.387-2.059-10.453,2.325-13.544c4.583-3.18,10.466-2.054,13.543,2.326
						c7.309,10.344,15.099,20.54,23.143,30.313c3.416,4.148,2.823,10.266-1.317,13.677
						C1650.697,1990.625,1650.207,1990.952,1649.701,1991.234z"/>
					<path style="fill:#FFFFFF;" d="M1563.627,1843.19c-0.398,0.221-0.818,0.423-1.257,0.591
						c-5.005,1.916-10.634-0.589-12.554-5.602c-9.937-25.921-17.928-52.774-23.751-79.811c-1.123-5.239,2.205-10.403,7.452-11.552
						c5.247-1.128,10.416,2.208,11.552,7.451c5.611,26.07,13.316,51.962,22.903,76.96
						C1569.72,1835.792,1567.79,1840.874,1563.627,1843.19z M1528.927,1632.58c-1.51,0.84-3.257,1.291-5.113,1.215
						c-5.358-0.222-9.534-4.74-9.316-10.107c1.129-27.658,4.43-55.493,9.808-82.736c1.027-5.241,6.125-8.686,11.417-7.645
						c5.259,1.038,8.687,6.146,7.645,11.417c-5.188,26.257-8.363,53.089-9.447,79.756
						C1533.78,1627.991,1531.788,1630.989,1528.927,1632.58z M1580.334,1425.365c-2.654,1.477-5.967,1.691-8.909,0.287
						c-4.847-2.31-6.905-8.115-4.598-12.949c11.928-25.034,25.891-49.32,41.492-72.205c3.063-4.43,9.075-5.57,13.512-2.554
						c4.432,3.029,5.57,9.074,2.554,13.511c-15.051,22.057-28.516,45.481-40.01,69.599
						C1583.473,1422.946,1582.034,1424.42,1580.334,1425.365z M1974.023,1130.138c-0.954,0.531-2.012,0.913-3.16,1.095
						c-26.348,4.311-52.599,10.707-78.026,19.034c-5.097,1.673-10.584-1.105-12.254-6.214c-1.669-5.088,1.091-10.609,6.214-12.254
						c26.374-8.636,53.604-15.284,80.936-19.739c5.293-0.871,10.29,2.724,11.152,8.021
						C1979.57,1124.239,1977.497,1128.205,1974.023,1130.138z M1708.984,1255.112c-3.914,2.177-8.944,1.414-12.02-2.087
						c-3.539-4.036-3.142-10.176,0.895-13.714c20.813-18.26,43.246-35.053,66.695-49.902c4.232-2.582,10.532-1.526,13.404,3.012
						c2.875,4.524,1.527,10.531-3.011,13.404c-22.585,14.314-44.216,30.498-64.269,48.095
						C1710.146,1254.39,1709.582,1254.78,1708.984,1255.112z"/>
					<path style="fill:#FFFFFF;" d="M2145.737,1130.524c-1.857,1.033-4.06,1.466-6.325,1.086
						c-12.514-2.095-25.233-3.738-37.799-4.891c-5.353-0.486-9.287-5.215-8.797-10.56c0.494-5.357,5.24-9.279,10.559-8.797
						c13.056,1.196,26.259,2.907,39.252,5.082c5.289,0.88,8.862,5.897,7.974,11.191
						C2150.095,1126.665,2148.233,1129.135,2145.737,1130.524z"/>
				</g>
				<g>
					
						<linearGradient id="SVGID_00000107583380351095084560000017537356074143686024_" gradientUnits="userSpaceOnUse" x1="2021.5328" y1="846.9781" x2="1342.1195" y2="2373.123" gradientTransform="matrix(0.9916 -0.1291 0.1291 0.9916 232.5783 94.2364)">
						<stop  offset="0" style="stop-color:#53D8FF"/>
						<stop  offset="1" style="stop-color:#3840F7"/>
					</linearGradient>
					<path style="fill:url(#SVGID_00000107583380351095084560000017537356074143686024_);" d="M2171.031,1254.95
						c-2.503-1.052-5.399-0.399-7.209,1.626l-51.641,57.746c-35.672-6.032-72.564-6.42-109.333-0.573l-51.041-58.211
						c-1.789-2.043-4.678-2.723-7.192-1.697l-86.024,35.14c-2.514,1.028-4.099,3.536-3.948,6.247l4.313,77.299
						c-30.347,21.57-56.416,47.674-77.661,76.959l-77.304-5.074c-2.71-0.177-5.233,1.383-6.285,3.887l-35.982,85.676
						c-1.051,2.504-0.398,5.399,1.627,7.209l57.746,51.642c-6.034,35.671-6.42,72.563-0.573,109.332l-58.213,51.041
						c-2.042,1.79-2.723,4.678-1.696,7.193l35.14,86.025c1.026,2.514,3.536,4.1,6.247,3.948l77.299-4.313
						c21.569,30.347,47.673,56.417,76.957,77.661l-5.073,77.305c-0.178,2.708,1.383,5.233,3.886,6.284l85.675,35.981
						c2.505,1.052,5.399,0.398,7.21-1.625l51.642-57.748c35.672,6.035,72.563,6.421,109.332,0.574l51.042,58.213
						c1.79,2.041,4.678,2.723,7.192,1.697l86.026-35.141c2.514-1.025,4.1-3.535,3.947-6.247l-4.313-77.299
						c30.348-21.568,56.417-47.674,77.662-76.958l77.303,5.074c2.708,0.18,5.234-1.384,6.285-3.887l35.98-85.676
						c1.051-2.503,0.399-5.397-1.625-7.209l-57.745-51.641c6.033-35.672,6.42-72.563,0.573-109.333l58.211-51.042
						c2.041-1.788,2.723-4.678,1.695-7.192l-35.139-86.023c-1.027-2.514-3.535-4.099-6.247-3.949l-77.3,4.314
						c-21.569-30.347-47.674-56.415-76.957-77.662l5.073-77.303c0.178-2.709-1.383-5.233-3.887-6.286L2171.031,1254.95z"/>
					<path style="fill:#FFFFFF;" d="M2102.932,1734.064c-18.667,10.386-40.113,14.294-61.578,11.043
						c-25.639-3.882-48.233-17.516-63.627-38.391c-31.758-43.103-22.537-103.999,20.561-135.765l0,0
						c43.135-31.776,104.007-22.52,135.764,20.561c31.758,43.103,22.537,103.999-20.561,135.765
						C2110.093,1729.776,2106.564,1732.043,2102.932,1734.064z M2015.585,1594.428c-14.609,10.767-24.146,26.575-26.872,44.513
						c-2.713,17.94,1.722,35.867,12.49,50.477c22.219,30.154,64.901,36.64,94.99,14.382c30.155-22.219,36.614-64.833,14.382-94.991
						C2088.357,1578.656,2045.715,1572.126,2015.585,1594.428L2015.585,1594.428z"/>
					<path style="fill:#FFFFFF;" d="M2171.539,1859.595c-8.301,4.619-16.949,8.789-25.959,12.467
						c-112.874,46.11-241.006-0.787-298.883-104.768c-4.632-8.305-8.808-16.982-12.49-26
						c-49.792-121.891,8.876-261.58,130.768-311.372l0,0c14.765-6.021,30.095-10.576,45.609-13.55
						c1.07-0.205,2.145-0.401,3.211-0.592l5.09,28.705c-14.589,2.589-29.014,6.76-42.889,12.427l0,0
						c-70.477,28.776-116.877,91.81-127.861,162.05c-5.506,35.23-2.104,72.281,11.64,107.738c0.076,0.196,0.153,0.392,0.229,0.588
						c0.392,0.998,0.785,1.996,1.194,2.985c3.229,7.912,6.9,15.524,10.96,22.822c50.817,91.294,163.306,132.462,262.4,91.976
						c106.96-43.602,158.518-166.324,114.798-273.36c-3.196-7.833-6.863-15.437-10.946-22.776
						c-14.265-25.62-33.746-48.024-57.263-65.64l17.493-23.329c26.822,20.099,49.046,45.657,65.296,74.885
						c4.633,8.326,8.781,16.954,12.411,25.838C2322.455,1673.575,2275.533,1801.722,2171.539,1859.595z"/>
				</g>
			</g>
			<g>
				
					<linearGradient id="SVGID_00000162313656381802117310000000030253027991584935_" gradientUnits="userSpaceOnUse" x1="1414.9916" y1="1597.2194" x2="973.8787" y2="2778.5879" gradientTransform="matrix(0.9916 -0.1291 0.1291 0.9916 232.5783 94.2364)">
					<stop  offset="0" style="stop-color:#53D8FF"/>
					<stop  offset="1" style="stop-color:#3840F7"/>
				</linearGradient>
				<path style="fill:url(#SVGID_00000162313656381802117310000000030253027991584935_);" d="M1685.726,2129.415l-26.279,34.546
					c-20.191-1.784-40.813-0.363-61.091,4.536l-31.093-30.245c-1.09-1.063-2.733-1.313-4.093-0.628l-46.486,23.447
					c-1.358,0.686-2.133,2.157-1.928,3.664l5.841,42.983c-15.991,13.395-29.392,29.132-39.958,46.432l-43.401,0.598
					c-1.521,0.022-2.862,1.006-3.337,2.451l-16.292,49.448c-0.477,1.446,0.017,3.035,1.228,3.955l34.546,26.279
					c-1.785,20.192-0.362,40.813,4.536,61.09l-30.247,31.094c-1.06,1.091-1.313,2.734-0.628,4.093l23.447,46.486
					c0.685,1.358,2.156,2.132,3.664,1.928l42.983-5.843c13.395,15.993,29.132,29.393,46.431,39.958l0.6,43.402
					c0.021,1.521,1.004,2.862,2.449,3.338l49.45,16.292c1.445,0.477,3.033-0.017,3.954-1.228l26.279-34.546
					c20.191,1.785,40.814,0.364,61.09-4.536l31.094,30.247c1.091,1.06,2.733,1.313,4.093,0.628l46.487-23.447
					c1.358-0.685,2.132-2.156,1.927-3.664l-5.842-42.982c15.992-13.394,29.393-29.134,39.958-46.432l43.401-0.6
					c1.522-0.02,2.862-1.004,3.338-2.449l16.292-49.45c0.475-1.444-0.017-3.032-1.228-3.954l-34.546-26.279
					c1.785-20.191,0.364-40.813-4.535-61.09l30.246-31.093c1.06-1.09,1.314-2.734,0.628-4.093l-23.446-46.485
					c-0.686-1.359-2.157-2.133-3.665-1.929l-42.982,5.842c-13.394-15.991-29.132-29.392-46.43-39.958l-0.601-43.402
					c-0.02-1.521-1.004-2.862-2.449-3.338l-49.45-16.292C1688.236,2127.711,1686.647,2128.204,1685.726,2129.415z"/>
				<path style="fill:#FFFFFF;" d="M1672.434,2406.594c-24.613,13.695-56.338,8.79-75.495-13.305
					c-21.967-25.331-19.234-63.808,6.097-85.776c25.3-22.004,63.8-19.229,85.771,6.089c21.973,25.34,19.239,63.816-6.093,85.784
					C1679.487,2402.192,1676.033,2404.592,1672.434,2406.594z M1627.484,2325.786c-1.874,1.043-3.667,2.29-5.353,3.749
					c-13.183,11.44-14.606,31.465-3.17,44.661c11.435,13.174,31.472,14.58,44.66,3.169c13.183-11.44,14.606-31.465,3.17-44.66
					C1656.811,2321.207,1640.288,2318.662,1627.484,2325.786z"/>
				<g>
					<path style="fill:#FFFFFF;" d="M1814.579,2138.272c-3.251,1.809-7.382,1.664-10.558-0.707
						c-9.95-7.441-20.549-14.271-31.503-20.297c-4.706-2.583-6.42-8.494-3.832-13.191c2.571-4.71,8.48-6.424,13.191-3.832
						c11.746,6.452,23.114,13.767,33.794,21.759c4.296,3.213,5.169,9.309,1.955,13.605
						C1816.775,2136.735,1815.731,2137.631,1814.579,2138.272z"/>
					<path style="fill:#FFFFFF;" d="M1854.107,2549.797c-3.549,1.975-8.104,1.577-11.273-1.308
						c-3.965-3.615-4.25-9.766-0.635-13.732c19.308-21.18,35.009-45.152,46.666-71.261c2.188-4.91,7.94-7.101,12.829-4.912
						c4.905,2.179,7.104,7.928,4.912,12.83c-12.499,28.011-29.337,53.725-50.039,76.439
						C1855.836,2548.65,1855.002,2549.298,1854.107,2549.797z M1925.45,2335.354c-1.136,0.632-2.413,1.05-3.797,1.179
						c-5.343,0.507-10.087-3.413-10.594-8.756c-2.713-28.551-9.91-56.301-21.383-82.464c-2.163-4.922,0.175-10.772,4.988-12.799
						c4.913-2.158,10.649,0.069,12.799,4.987c12.321,28.059,20.041,57.821,22.946,88.437
						C1930.779,2329.903,1928.726,2333.532,1925.45,2335.354z"/>
					<path style="fill:#FFFFFF;" d="M1734.349,2627.354c-0.539,0.3-1.105,0.55-1.721,0.751c-12.702,4.146-25.815,7.435-38.979,9.775
						c-5.277,0.937-10.323-2.587-11.265-7.872c-0.943-5.286,2.574-10.306,7.872-11.266c12.266-2.177,24.493-5.244,36.348-9.114
						c5.101-1.665,10.581,1.118,12.25,6.227C1740.323,2620.348,1738.329,2625.139,1734.349,2627.354z"/>
				</g>
				<g>
					<path style="fill:#FFFFFF;" d="M1493.106,2594.521c-3.077,1.712-6.978,1.688-10.116-0.399
						c-11.094-7.37-21.799-15.64-31.831-24.556c-4.006-3.571-4.37-9.71-0.805-13.725c3.596-3.999,9.715-4.362,13.724-0.804
						c9.356,8.325,19.336,16.033,29.677,22.909c4.464,2.968,5.682,9.002,2.705,13.47
						C1495.577,2592.755,1494.416,2593.792,1493.106,2594.521z"/>
					<path style="fill:#FFFFFF;" d="M1384.209,2454.506c-0.473,0.263-0.985,0.494-1.521,0.684
						c-5.062,1.773-10.604-0.888-12.383-5.958c-9.962-28.406-15.406-58.119-16.161-88.303c-0.134-5.355,4.103-9.841,9.468-9.958
						c5.364-0.139,9.829,4.099,9.959,9.467c0.711,28.155,5.782,55.871,15.074,82.369
						C1390.23,2447.333,1388.272,2452.245,1384.209,2454.506z M1400.143,2232.743c-2.761,1.536-6.221,1.701-9.225,0.126
						c-4.762-2.488-6.605-8.358-4.122-13.106c13.917-26.672,31.912-50.933,53.473-72.105c3.818-3.775,9.981-3.707,13.739,0.12
						c3.759,3.828,3.708,9.981-0.12,13.74c-20.11,19.758-36.882,42.372-49.864,67.23
						C1403.111,2230.504,1401.744,2231.852,1400.143,2232.743z"/>
					<path style="fill:#FFFFFF;" d="M1611.31,2085.234c-1.045,0.582-2.212,0.981-3.467,1.147
						c-12.355,1.607-24.718,4.098-36.734,7.406c-5.171,1.422-10.526-1.625-11.948-6.797c-1.426-5.179,1.63-10.539,6.797-11.948
						c12.877-3.538,26.128-6.208,39.369-7.939c5.326-0.694,10.194,3.059,10.897,8.381
						C1616.752,2079.556,1614.685,2083.356,1611.31,2085.234z"/>
				</g>
				<path style="fill:#FFFFFF;" d="M1710.91,2476.975c-1.692,0.941-3.411,1.854-5.148,2.733
					c-33.444,16.871-71.442,19.704-107.011,7.989c-33.736-11.116-61.439-34.049-78.6-64.911c-0.936-1.683-1.84-3.385-2.715-5.115
					c-16.866-33.436-19.703-71.442-7.988-107.01c11.719-35.581,36.675-64.41,70.025-81.315l0,0c2.111-1.066,4.255-2.074,6.413-3.035
					c5.975-2.652,12.121-4.876,18.351-6.659c0.06-0.011,0.122-0.035,0.181-0.046c0.994-0.282,1.993-0.555,2.98-0.812l7.336,28.216
					c-7.58,1.97-15.018,4.783-22.125,8.368l0,0c-26.542,13.291-46.193,36.235-55.464,64.406
					c-9.284,28.167-7.043,58.272,6.322,84.752c0.69,1.375,1.407,2.725,2.15,4.06c13.589,24.443,35.534,42.608,62.248,51.409
					c28.175,9.28,58.28,7.038,84.76-6.327c26.496-13.276,46.177-36.227,55.464-64.406c9.284-28.167,7.034-58.268-6.322-84.752
					c-0.68-1.359-1.389-2.691-2.122-4.01c-9.025-16.22-21.95-29.925-37.594-39.812l15.566-24.646
					c19.778,12.497,36.107,29.801,47.499,50.276c0.927,1.667,1.821,3.352,2.682,5.056c16.858,33.441,19.695,71.448,7.98,107.015
					C1764.674,2432.118,1741.75,2459.816,1710.91,2476.975z"/>
			</g>
		</g>
	</g>
</g>
</svg>
